<?xml version="1.0" encoding="UTF-8" standalone="no"?>
<svg
   width="20"
   height="20"
   viewBox="0 0 20 20"
   fill="none"
   version="1.1"
   id="svg196"
   sodipodi:docname="inwhite.svg"
   inkscape:version="1.2.2 (732a01da63, 2022-12-09)"
   xmlns:inkscape="http://www.inkscape.org/namespaces/inkscape"
   xmlns:sodipodi="http://sodipodi.sourceforge.net/DTD/sodipodi-0.dtd"
   xmlns="http://www.w3.org/2000/svg"
   xmlns:svg="http://www.w3.org/2000/svg">
  <sodipodi:namedview
     id="namedview198"
     pagecolor="#505050"
     bordercolor="#eeeeee"
     borderopacity="1"
     inkscape:showpageshadow="0"
     inkscape:pageopacity="0"
     inkscape:pagecheckerboard="0"
     inkscape:deskcolor="#505050"
     showgrid="false"
     inkscape:zoom="27.55"
     inkscape:cx="0.56261343"
     inkscape:cy="10.018149"
     inkscape:window-width="1366"
     inkscape:window-height="705"
     inkscape:window-x="-8"
     inkscape:window-y="32"
     inkscape:window-maximized="1"
     inkscape:current-layer="svg196" />
  <g
     clip-path="url(#clip0_320_13)"
     id="g189"
     style="fill:#ffffff">
    <path
       d="M19.995 20.0001V19.9993H20V12.6643C20 9.07593 19.2275 6.31177 15.0325 6.31177C13.0158 6.31177 11.6625 7.41843 11.11 8.4676H11.0517V6.64677H7.07416V19.9993H11.2158V13.3876C11.2158 11.6468 11.5458 9.96343 13.7017 9.96343C15.8258 9.96343 15.8575 11.9501 15.8575 13.4993V20.0001H19.995Z"
       fill="#F1654C"
       id="path183"
       style="fill:#ffffff" />
    <path
       d="M0.330017 6.64746H4.47668V20H0.330017V6.64746Z"
       fill="#F1654C"
       id="path185"
       style="fill:#ffffff" />
    <path
       d="M2.40167 0C1.07583 0 0 1.07583 0 2.40167C0 3.7275 1.07583 4.82583 2.40167 4.82583C3.7275 4.82583 4.80333 3.7275 4.80333 2.40167C4.8025 1.07583 3.72667 0 2.40167 0V0Z"
       fill="#F1654C"
       id="path187"
       style="fill:#ffffff" />
  </g>
  <defs
     id="defs194">
    <clipPath
       id="clip0_320_13">
      <rect
         width="20"
         height="20"
         fill="white"
         id="rect191" />
    </clipPath>
  </defs>
</svg>
