<svg width="1319" height="149" viewBox="0 0 1319 149" fill="none" xmlns="http://www.w3.org/2000/svg">
<rect width="1319" height="149" rx="16" fill="#F1654C"/>
<rect x="40" y="40" width="69" height="69" rx="10" fill="#F6F6F6"/>
<rect x="57.8467" y="63" width="33" height="23" rx="4" fill="#F1654C"/>
<path d="M78.4233 76.9492L78.503 76.9173L78.576 76.8724L91.576 68.8724L91.956 68.6385L92.0358 68.1996C92.2643 66.9427 92.1546 65.8581 91.747 64.9502C91.3394 64.042 90.6716 63.3952 89.928 62.9502C88.4963 62.0932 86.7121 61.935 85.5148 62.0207H62.0519C60.8136 62.0207 59.7946 62.2793 58.9856 62.7649C58.1706 63.2542 57.6318 63.9365 57.3016 64.6749C56.6609 66.1073 56.8024 67.7396 57.0871 68.7838L57.1955 69.1811L57.5522 69.3869L70.4481 76.8268C71.5814 77.8681 73.2565 77.9849 74.6135 77.8669C76.0749 77.7399 77.5219 77.3097 78.4233 76.9492Z" fill="#F1654C" stroke="#F6F6F6" stroke-width="2"/>
<path d="M138.075 56.7344C137.982 55.866 137.591 55.1899 136.902 54.706C136.219 54.2221 135.331 53.9801 134.237 53.9801C133.468 53.9801 132.809 54.0961 132.259 54.3281C131.708 54.5601 131.287 54.875 130.996 55.2727C130.704 55.6705 130.555 56.1245 130.548 56.6349C130.548 57.0592 130.644 57.4271 130.837 57.7386C131.036 58.0502 131.304 58.3153 131.642 58.5341C131.98 58.7462 132.355 58.9252 132.766 59.071C133.177 59.2169 133.591 59.3395 134.009 59.4389L135.918 59.9162C136.687 60.0952 137.426 60.3371 138.135 60.642C138.851 60.947 139.491 61.3314 140.054 61.7955C140.624 62.2595 141.075 62.8196 141.406 63.4759C141.738 64.1321 141.903 64.901 141.903 65.7827C141.903 66.9759 141.598 68.0265 140.989 68.9347C140.379 69.8362 139.497 70.5421 138.344 71.0526C137.197 71.5563 135.808 71.8082 134.178 71.8082C132.593 71.8082 131.218 71.563 130.051 71.0724C128.891 70.5819 127.983 69.866 127.327 68.9247C126.677 67.9834 126.326 66.8366 126.273 65.4844H129.902C129.955 66.1937 130.174 66.7836 130.558 67.2543C130.943 67.7249 131.443 68.0762 132.06 68.3082C132.683 68.5402 133.379 68.6562 134.148 68.6562C134.95 68.6562 135.652 68.5369 136.256 68.2983C136.866 68.053 137.343 67.715 137.688 67.2841C138.032 66.8466 138.208 66.3362 138.214 65.7528C138.208 65.2225 138.052 64.785 137.747 64.4403C137.442 64.089 137.015 63.7973 136.464 63.5653C135.921 63.3267 135.285 63.1146 134.555 62.929L132.239 62.3324C130.562 61.9015 129.236 61.2486 128.261 60.3736C127.294 59.492 126.81 58.322 126.81 56.8636C126.81 55.6638 127.134 54.6132 127.784 53.7116C128.44 52.8101 129.332 52.1108 130.459 51.6136C131.586 51.1098 132.862 50.858 134.287 50.858C135.732 50.858 136.998 51.1098 138.085 51.6136C139.179 52.1108 140.037 52.8035 140.661 53.6918C141.284 54.5734 141.605 55.5876 141.625 56.7344H138.075ZM154.767 65.0767V56.2273H158.367V71.5H154.877V68.7855H154.718C154.373 69.6406 153.806 70.34 153.017 70.8835C152.235 71.4271 151.271 71.6989 150.124 71.6989C149.123 71.6989 148.238 71.4768 147.469 71.0327C146.707 70.5819 146.11 69.929 145.679 69.0739C145.248 68.2121 145.033 67.1714 145.033 65.9517V56.2273H148.632V65.3949C148.632 66.3627 148.898 67.1316 149.428 67.7017C149.958 68.2718 150.654 68.5568 151.516 68.5568C152.046 68.5568 152.56 68.4276 153.057 68.169C153.554 67.9105 153.962 67.526 154.28 67.0156C154.605 66.4986 154.767 65.8523 154.767 65.0767ZM162.227 71.5V51.1364H165.827V58.7528H165.976C166.161 58.3816 166.423 57.9872 166.761 57.5696C167.099 57.1454 167.557 56.7841 168.134 56.4858C168.71 56.1809 169.446 56.0284 170.341 56.0284C171.521 56.0284 172.585 56.33 173.533 56.9332C174.487 57.5298 175.243 58.4148 175.8 59.5881C176.363 60.7547 176.645 62.1866 176.645 63.8835C176.645 65.5606 176.37 66.9858 175.82 68.1591C175.269 69.3324 174.52 70.2273 173.572 70.8438C172.625 71.4602 171.551 71.7685 170.351 71.7685C169.476 71.7685 168.75 71.6226 168.173 71.331C167.597 71.0393 167.133 70.688 166.781 70.277C166.437 69.8594 166.168 69.465 165.976 69.0938H165.767V71.5H162.227ZM165.757 63.8636C165.757 64.8513 165.896 65.7164 166.175 66.4588C166.46 67.2012 166.867 67.7812 167.398 68.1989C167.935 68.6098 168.584 68.8153 169.347 68.8153C170.142 68.8153 170.808 68.6032 171.345 68.179C171.882 67.7481 172.286 67.1615 172.558 66.419C172.837 65.67 172.976 64.8182 172.976 63.8636C172.976 62.9157 172.84 62.0739 172.568 61.3381C172.296 60.6023 171.892 60.0256 171.355 59.608C170.818 59.1903 170.149 58.9815 169.347 58.9815C168.578 58.9815 167.925 59.1837 167.388 59.5881C166.851 59.9924 166.443 60.5592 166.165 61.2884C165.893 62.0175 165.757 62.8759 165.757 63.8636ZM191.776 60.2642L188.495 60.6222C188.402 60.2907 188.239 59.9792 188.007 59.6875C187.782 59.3958 187.477 59.1605 187.093 58.9815C186.708 58.8026 186.238 58.7131 185.681 58.7131C184.932 58.7131 184.302 58.8755 183.792 59.2003C183.288 59.5251 183.039 59.946 183.046 60.4631C183.039 60.9072 183.202 61.2685 183.533 61.5469C183.871 61.8253 184.428 62.054 185.203 62.233L187.809 62.7898C189.254 63.1013 190.328 63.5952 191.03 64.2713C191.739 64.9474 192.097 65.8324 192.104 66.9261C192.097 67.8873 191.816 68.7358 191.259 69.4716C190.709 70.2008 189.943 70.7708 188.962 71.1818C187.981 71.5928 186.854 71.7983 185.581 71.7983C183.712 71.7983 182.207 71.4072 181.067 70.625C179.927 69.8362 179.248 68.7391 179.029 67.3338L182.539 66.9957C182.698 67.6851 183.036 68.2055 183.553 68.5568C184.07 68.9081 184.743 69.0838 185.571 69.0838C186.426 69.0838 187.113 68.9081 187.63 68.5568C188.153 68.2055 188.415 67.7713 188.415 67.2543C188.415 66.8168 188.246 66.4555 187.908 66.1705C187.577 65.8854 187.06 65.6667 186.357 65.5142L183.752 64.9673C182.287 64.6624 181.203 64.1487 180.5 63.4261C179.798 62.697 179.45 61.7756 179.456 60.6619C179.45 59.7206 179.705 58.9053 180.222 58.2159C180.746 57.5199 181.471 56.983 182.4 56.6051C183.334 56.2206 184.411 56.0284 185.631 56.0284C187.421 56.0284 188.829 56.4096 189.857 57.1719C190.891 57.9342 191.531 58.965 191.776 60.2642ZM201.734 71.7983C200.209 71.7983 198.9 71.4635 197.806 70.794C196.719 70.1245 195.881 69.1998 195.291 68.0199C194.708 66.8333 194.416 65.4678 194.416 63.9233C194.416 62.3722 194.714 61.0033 195.311 59.8168C195.907 58.6236 196.749 57.6955 197.836 57.0327C198.93 56.3632 200.223 56.0284 201.714 56.0284C202.954 56.0284 204.051 56.2571 205.005 56.7145C205.967 57.1652 206.732 57.8049 207.302 58.6335C207.872 59.4555 208.197 60.4167 208.277 61.517H204.836C204.697 60.7812 204.366 60.1681 203.842 59.6776C203.325 59.1804 202.632 58.9318 201.764 58.9318C201.028 58.9318 200.382 59.1307 199.825 59.5284C199.268 59.9195 198.834 60.483 198.522 61.2188C198.217 61.9545 198.065 62.8362 198.065 63.8636C198.065 64.9044 198.217 65.7992 198.522 66.5483C198.827 67.2907 199.255 67.8641 199.805 68.2685C200.362 68.6662 201.015 68.8651 201.764 68.8651C202.294 68.8651 202.768 68.7656 203.186 68.5668C203.61 68.3613 203.965 68.0663 204.25 67.6818C204.535 67.2973 204.73 66.83 204.836 66.2798H208.277C208.19 67.3603 207.872 68.3182 207.322 69.1534C206.772 69.982 206.023 70.6316 205.075 71.1023C204.127 71.5663 203.013 71.7983 201.734 71.7983ZM211.232 71.5V56.2273H214.722V58.7727H214.881C215.16 57.8911 215.637 57.2116 216.313 56.7344C216.996 56.2505 217.775 56.0085 218.65 56.0085C218.849 56.0085 219.071 56.0185 219.316 56.0384C219.568 56.0516 219.777 56.0748 219.942 56.108V59.419C219.79 59.366 219.548 59.3196 219.217 59.2798C218.892 59.2334 218.577 59.2102 218.272 59.2102C217.616 59.2102 217.026 59.3527 216.502 59.6378C215.985 59.9162 215.577 60.304 215.279 60.8011C214.981 61.2983 214.832 61.8717 214.832 62.5213V71.5H211.232ZM222.334 71.5V56.2273H225.933V71.5H222.334ZM224.143 54.0597C223.573 54.0597 223.083 53.8707 222.672 53.4929C222.261 53.1084 222.055 52.6477 222.055 52.1108C222.055 51.5672 222.261 51.1065 222.672 50.7287C223.083 50.3442 223.573 50.152 224.143 50.152C224.72 50.152 225.211 50.3442 225.615 50.7287C226.026 51.1065 226.232 51.5672 226.232 52.1108C226.232 52.6477 226.026 53.1084 225.615 53.4929C225.211 53.8707 224.72 54.0597 224.143 54.0597ZM229.794 71.5V51.1364H233.393V58.7528H233.542C233.728 58.3816 233.99 57.9872 234.328 57.5696C234.666 57.1454 235.123 56.7841 235.7 56.4858C236.277 56.1809 237.012 56.0284 237.907 56.0284C239.087 56.0284 240.151 56.33 241.099 56.9332C242.054 57.5298 242.809 58.4148 243.366 59.5881C243.93 60.7547 244.211 62.1866 244.211 63.8835C244.211 65.5606 243.936 66.9858 243.386 68.1591C242.836 69.3324 242.087 70.2273 241.139 70.8438C240.191 71.4602 239.117 71.7685 237.917 71.7685C237.042 71.7685 236.316 71.6226 235.74 71.331C235.163 71.0393 234.699 70.688 234.348 70.277C234.003 69.8594 233.734 69.465 233.542 69.0938H233.333V71.5H229.794ZM233.324 63.8636C233.324 64.8513 233.463 65.7164 233.741 66.4588C234.026 67.2012 234.434 67.7812 234.964 68.1989C235.501 68.6098 236.151 68.8153 236.913 68.8153C237.708 68.8153 238.375 68.6032 238.912 68.179C239.449 67.7481 239.853 67.1615 240.125 66.419C240.403 65.67 240.542 64.8182 240.542 63.8636C240.542 62.9157 240.406 62.0739 240.135 61.3381C239.863 60.6023 239.458 60.0256 238.922 59.608C238.385 59.1903 237.715 58.9815 236.913 58.9815C236.144 58.9815 235.491 59.1837 234.954 59.5881C234.417 59.9924 234.01 60.5592 233.731 61.2884C233.459 62.0175 233.324 62.8759 233.324 63.8636ZM254.033 71.7983C252.501 71.7983 251.179 71.4801 250.065 70.8438C248.958 70.2008 248.107 69.2926 247.51 68.1193C246.913 66.9394 246.615 65.5507 246.615 63.9531C246.615 62.3821 246.913 61.0033 247.51 59.8168C248.113 58.6236 248.955 57.6955 250.036 57.0327C251.116 56.3632 252.385 56.0284 253.844 56.0284C254.785 56.0284 255.673 56.1809 256.509 56.4858C257.35 56.7841 258.093 57.2481 258.736 57.8778C259.385 58.5076 259.896 59.3097 260.267 60.2841C260.638 61.2519 260.824 62.4053 260.824 63.7443V64.848H248.305V62.4219H257.374C257.367 61.7325 257.218 61.1193 256.926 60.5824C256.634 60.0388 256.227 59.6113 255.703 59.2997C255.186 58.9882 254.583 58.8324 253.893 58.8324C253.158 58.8324 252.511 59.0114 251.955 59.3693C251.398 59.7206 250.964 60.1847 250.652 60.7614C250.347 61.3314 250.191 61.9579 250.185 62.6406V64.7585C250.185 65.6468 250.347 66.4091 250.672 67.0455C250.997 67.6752 251.451 68.1591 252.034 68.4972C252.617 68.8286 253.3 68.9943 254.082 68.9943C254.606 68.9943 255.08 68.9214 255.504 68.7756C255.929 68.6231 256.296 68.401 256.608 68.1094C256.92 67.8177 257.155 67.4564 257.314 67.0256L260.675 67.4034C260.463 68.2917 260.058 69.0672 259.462 69.7301C258.872 70.3864 258.116 70.8968 257.195 71.2614C256.273 71.6193 255.219 71.7983 254.033 71.7983ZM270.078 54.2287V51.1364H286.326V54.2287H280.032V71.5H276.373V54.2287H270.078ZM293.746 71.7983C292.254 71.7983 290.962 71.4702 289.868 70.8139C288.774 70.1577 287.926 69.2396 287.322 68.0597C286.726 66.8797 286.428 65.5009 286.428 63.9233C286.428 62.3456 286.726 60.9635 287.322 59.777C287.926 58.5904 288.774 57.669 289.868 57.0128C290.962 56.3565 292.254 56.0284 293.746 56.0284C295.237 56.0284 296.53 56.3565 297.624 57.0128C298.717 57.669 299.563 58.5904 300.159 59.777C300.762 60.9635 301.064 62.3456 301.064 63.9233C301.064 65.5009 300.762 66.8797 300.159 68.0597C299.563 69.2396 298.717 70.1577 297.624 70.8139C296.53 71.4702 295.237 71.7983 293.746 71.7983ZM293.766 68.9148C294.574 68.9148 295.25 68.6927 295.794 68.2486C296.338 67.7978 296.742 67.1946 297.007 66.4389C297.279 65.6832 297.415 64.8414 297.415 63.9134C297.415 62.9787 297.279 62.1335 297.007 61.3778C296.742 60.6155 296.338 60.009 295.794 59.5582C295.25 59.1075 294.574 58.8821 293.766 58.8821C292.937 58.8821 292.248 59.1075 291.697 59.5582C291.154 60.009 290.746 60.6155 290.474 61.3778C290.209 62.1335 290.077 62.9787 290.077 63.9134C290.077 64.8414 290.209 65.6832 290.474 66.4389C290.746 67.1946 291.154 67.7978 291.697 68.2486C292.248 68.6927 292.937 68.9148 293.766 68.9148ZM329.419 61.3182C329.419 63.5123 329.008 65.3916 328.186 66.956C327.371 68.5137 326.257 69.7069 324.846 70.5355C323.44 71.3641 321.846 71.7784 320.063 71.7784C318.28 71.7784 316.682 71.3641 315.27 70.5355C313.865 69.7003 312.751 68.5038 311.929 66.946C311.114 65.3816 310.706 63.5057 310.706 61.3182C310.706 59.1241 311.114 57.2481 311.929 55.6903C312.751 54.1259 313.865 52.9295 315.27 52.1009C316.682 51.2723 318.28 50.858 320.063 50.858C321.846 50.858 323.44 51.2723 324.846 52.1009C326.257 52.9295 327.371 54.1259 328.186 55.6903C329.008 57.2481 329.419 59.1241 329.419 61.3182ZM325.711 61.3182C325.711 59.7737 325.469 58.4711 324.985 57.4105C324.507 56.3433 323.845 55.5379 322.996 54.9943C322.148 54.4441 321.17 54.169 320.063 54.169C318.956 54.169 317.978 54.4441 317.13 54.9943C316.281 55.5379 315.615 56.3433 315.131 57.4105C314.654 58.4711 314.415 59.7737 314.415 61.3182C314.415 62.8627 314.654 64.1686 315.131 65.2358C315.615 66.2964 316.281 67.1018 317.13 67.652C317.978 68.1955 318.956 68.4673 320.063 68.4673C321.17 68.4673 322.148 68.1955 322.996 67.652C323.845 67.1018 324.507 66.2964 324.985 65.2358C325.469 64.1686 325.711 62.8627 325.711 61.3182ZM342.482 65.0767V56.2273H346.082V71.5H342.592V68.7855H342.433C342.088 69.6406 341.521 70.34 340.732 70.8835C339.95 71.4271 338.986 71.6989 337.839 71.6989C336.838 71.6989 335.953 71.4768 335.184 71.0327C334.422 70.5819 333.825 69.929 333.394 69.0739C332.963 68.2121 332.748 67.1714 332.748 65.9517V56.2273H336.347V65.3949C336.347 66.3627 336.612 67.1316 337.143 67.7017C337.673 68.2718 338.369 68.5568 339.231 68.5568C339.761 68.5568 340.275 68.4276 340.772 68.169C341.269 67.9105 341.677 67.526 341.995 67.0156C342.32 66.4986 342.482 65.8523 342.482 65.0767ZM349.783 71.5V56.2273H353.273V58.7727H353.432C353.711 57.8911 354.188 57.2116 354.864 56.7344C355.547 56.2505 356.326 56.0085 357.201 56.0085C357.4 56.0085 357.622 56.0185 357.867 56.0384C358.119 56.0516 358.328 56.0748 358.493 56.108V59.419C358.341 59.366 358.099 59.3196 357.767 59.2798C357.443 59.2334 357.128 59.2102 356.823 59.2102C356.167 59.2102 355.577 59.3527 355.053 59.6378C354.536 59.9162 354.128 60.304 353.83 60.8011C353.532 61.2983 353.382 61.8717 353.382 62.5213V71.5H349.783ZM384.723 51.1364V71.5H381.442L371.847 57.6293H371.678V71.5H367.989V51.1364H371.29L380.875 65.017H381.054V51.1364H384.723ZM395.345 71.7983C393.814 71.7983 392.491 71.4801 391.378 70.8438C390.271 70.2008 389.419 69.2926 388.822 68.1193C388.226 66.9394 387.928 65.5507 387.928 63.9531C387.928 62.3821 388.226 61.0033 388.822 59.8168C389.426 58.6236 390.268 57.6955 391.348 57.0327C392.429 56.3632 393.698 56.0284 395.156 56.0284C396.098 56.0284 396.986 56.1809 397.821 56.4858C398.663 56.7841 399.405 57.2481 400.048 57.8778C400.698 58.5076 401.208 59.3097 401.58 60.2841C401.951 61.2519 402.136 62.4053 402.136 63.7443V64.848H389.618V62.4219H398.686C398.679 61.7325 398.53 61.1193 398.239 60.5824C397.947 60.0388 397.539 59.6113 397.016 59.2997C396.499 58.9882 395.895 58.8324 395.206 58.8324C394.47 58.8324 393.824 59.0114 393.267 59.3693C392.71 59.7206 392.276 60.1847 391.964 60.7614C391.66 61.3314 391.504 61.9579 391.497 62.6406V64.7585C391.497 65.6468 391.66 66.4091 391.984 67.0455C392.309 67.6752 392.763 68.1591 393.347 68.4972C393.93 68.8286 394.613 68.9943 395.395 68.9943C395.919 68.9943 396.393 68.9214 396.817 68.7756C397.241 68.6231 397.609 68.401 397.92 68.1094C398.232 67.8177 398.467 67.4564 398.626 67.0256L401.987 67.4034C401.775 68.2917 401.371 69.0672 400.774 69.7301C400.184 70.3864 399.429 70.8968 398.507 71.2614C397.586 71.6193 396.532 71.7983 395.345 71.7983ZM408.251 71.5L403.936 56.2273H407.605L410.29 66.9659H410.429L413.173 56.2273H416.803L419.547 66.9062H419.696L422.341 56.2273H426.02L421.695 71.5H417.946L415.082 61.179H414.874L412.01 71.5H408.251ZM440.604 60.2642L437.323 60.6222C437.23 60.2907 437.068 59.9792 436.836 59.6875C436.61 59.3958 436.305 59.1605 435.921 58.9815C435.536 58.8026 435.066 58.7131 434.509 58.7131C433.76 58.7131 433.13 58.8755 432.62 59.2003C432.116 59.5251 431.867 59.946 431.874 60.4631C431.867 60.9072 432.03 61.2685 432.361 61.5469C432.699 61.8253 433.256 62.054 434.032 62.233L436.637 62.7898C438.082 63.1013 439.156 63.5952 439.858 64.2713C440.568 64.9474 440.926 65.8324 440.932 66.9261C440.926 67.8873 440.644 68.7358 440.087 69.4716C439.537 70.2008 438.771 70.7708 437.79 71.1818C436.809 71.5928 435.682 71.7983 434.409 71.7983C432.54 71.7983 431.035 71.4072 429.895 70.625C428.755 69.8362 428.076 68.7391 427.857 67.3338L431.367 66.9957C431.526 67.6851 431.864 68.2055 432.381 68.5568C432.898 68.9081 433.571 69.0838 434.4 69.0838C435.255 69.0838 435.941 68.9081 436.458 68.5568C436.981 68.2055 437.243 67.7713 437.243 67.2543C437.243 66.8168 437.074 66.4555 436.736 66.1705C436.405 65.8854 435.888 65.6667 435.185 65.5142L432.58 64.9673C431.115 64.6624 430.031 64.1487 429.328 63.4261C428.626 62.697 428.278 61.7756 428.284 60.6619C428.278 59.7206 428.533 58.9053 429.05 58.2159C429.574 57.5199 430.3 56.983 431.228 56.6051C432.162 56.2206 433.239 56.0284 434.459 56.0284C436.249 56.0284 437.658 56.4096 438.685 57.1719C439.719 57.9342 440.359 58.965 440.604 60.2642ZM447.5 51.1364V71.5H443.9V51.1364H447.5ZM457.962 71.7983C456.431 71.7983 455.109 71.4801 453.995 70.8438C452.888 70.2008 452.036 69.2926 451.44 68.1193C450.843 66.9394 450.545 65.5507 450.545 63.9531C450.545 62.3821 450.843 61.0033 451.44 59.8168C452.043 58.6236 452.885 57.6955 453.965 57.0327C455.046 56.3632 456.315 56.0284 457.773 56.0284C458.715 56.0284 459.603 56.1809 460.438 56.4858C461.28 56.7841 462.022 57.2481 462.665 57.8778C463.315 58.5076 463.826 59.3097 464.197 60.2841C464.568 61.2519 464.754 62.4053 464.754 63.7443V64.848H452.235V62.4219H461.303C461.297 61.7325 461.147 61.1193 460.856 60.5824C460.564 60.0388 460.156 59.6113 459.633 59.2997C459.116 58.9882 458.513 58.8324 457.823 58.8324C457.087 58.8324 456.441 59.0114 455.884 59.3693C455.327 59.7206 454.893 60.1847 454.582 60.7614C454.277 61.3314 454.121 61.9579 454.114 62.6406V64.7585C454.114 65.6468 454.277 66.4091 454.602 67.0455C454.926 67.6752 455.38 68.1591 455.964 68.4972C456.547 68.8286 457.23 68.9943 458.012 68.9943C458.536 68.9943 459.01 68.9214 459.434 68.7756C459.858 68.6231 460.226 68.401 460.538 68.1094C460.849 67.8177 461.085 67.4564 461.244 67.0256L464.604 67.4034C464.392 68.2917 463.988 69.0672 463.391 69.7301C462.801 70.3864 462.046 70.8968 461.124 71.2614C460.203 71.6193 459.149 71.7983 457.962 71.7983ZM475.425 56.2273V59.0114H466.645V56.2273H475.425ZM468.813 52.5682H472.412V66.9062C472.412 67.3902 472.485 67.7614 472.631 68.0199C472.783 68.2718 472.982 68.4441 473.228 68.5369C473.473 68.6297 473.745 68.6761 474.043 68.6761C474.268 68.6761 474.474 68.6596 474.659 68.6264C474.852 68.5933 474.998 68.5634 475.097 68.5369L475.703 71.3509C475.511 71.4171 475.236 71.4901 474.878 71.5696C474.527 71.6491 474.096 71.6955 473.586 71.7088C472.684 71.7353 471.872 71.5994 471.15 71.3011C470.427 70.9962 469.854 70.5256 469.429 69.8892C469.012 69.2528 468.806 68.4574 468.813 67.5028V52.5682ZM486.062 56.2273V59.0114H477.282V56.2273H486.062ZM479.45 52.5682H483.049V66.9062C483.049 67.3902 483.122 67.7614 483.268 68.0199C483.42 68.2718 483.619 68.4441 483.864 68.5369C484.11 68.6297 484.381 68.6761 484.68 68.6761C484.905 68.6761 485.111 68.6596 485.296 68.6264C485.488 68.5933 485.634 68.5634 485.734 68.5369L486.34 71.3509C486.148 71.4171 485.873 71.4901 485.515 71.5696C485.164 71.6491 484.733 71.6955 484.222 71.7088C483.321 71.7353 482.509 71.5994 481.786 71.3011C481.064 70.9962 480.49 70.5256 480.066 69.8892C479.648 69.2528 479.443 68.4574 479.45 67.5028V52.5682ZM495.669 71.7983C494.138 71.7983 492.816 71.4801 491.702 70.8438C490.595 70.2008 489.743 69.2926 489.147 68.1193C488.55 66.9394 488.252 65.5507 488.252 63.9531C488.252 62.3821 488.55 61.0033 489.147 59.8168C489.75 58.6236 490.592 57.6955 491.672 57.0327C492.753 56.3632 494.022 56.0284 495.48 56.0284C496.422 56.0284 497.31 56.1809 498.145 56.4858C498.987 56.7841 499.73 57.2481 500.373 57.8778C501.022 58.5076 501.533 59.3097 501.904 60.2841C502.275 61.2519 502.461 62.4053 502.461 63.7443V64.848H489.942V62.4219H499.01C499.004 61.7325 498.855 61.1193 498.563 60.5824C498.271 60.0388 497.864 59.6113 497.34 59.2997C496.823 58.9882 496.22 58.8324 495.53 58.8324C494.794 58.8324 494.148 59.0114 493.591 59.3693C493.034 59.7206 492.6 60.1847 492.289 60.7614C491.984 61.3314 491.828 61.9579 491.821 62.6406V64.7585C491.821 65.6468 491.984 66.4091 492.309 67.0455C492.633 67.6752 493.087 68.1591 493.671 68.4972C494.254 68.8286 494.937 68.9943 495.719 68.9943C496.243 68.9943 496.717 68.9214 497.141 68.7756C497.565 68.6231 497.933 68.401 498.245 68.1094C498.556 67.8177 498.792 67.4564 498.951 67.0256L502.311 67.4034C502.099 68.2917 501.695 69.0672 501.098 69.7301C500.508 70.3864 499.753 70.8968 498.831 71.2614C497.91 71.6193 496.856 71.7983 495.669 71.7983ZM505.506 71.5V56.2273H508.996V58.7727H509.155C509.433 57.8911 509.911 57.2116 510.587 56.7344C511.269 56.2505 512.048 56.0085 512.923 56.0085C513.122 56.0085 513.344 56.0185 513.589 56.0384C513.841 56.0516 514.05 56.0748 514.216 56.108V59.419C514.063 59.366 513.821 59.3196 513.49 59.2798C513.165 59.2334 512.85 59.2102 512.545 59.2102C511.889 59.2102 511.299 59.3527 510.776 59.6378C510.259 59.9162 509.851 60.304 509.553 60.8011C509.254 61.2983 509.105 61.8717 509.105 62.5213V71.5H505.506Z" fill="white"/>
<path d="M126.886 99.5H125.409L129.682 87.8636H131.136L135.409 99.5H133.932L130.455 89.7045H130.364L126.886 99.5ZM127.432 94.9545H133.386V96.2045H127.432V94.9545ZM137.04 99.5V90.7727H138.335V92.0909H138.426C138.585 91.6591 138.873 91.3087 139.29 91.0398C139.706 90.7708 140.176 90.6364 140.699 90.6364C140.797 90.6364 140.92 90.6383 141.068 90.642C141.216 90.6458 141.328 90.6515 141.403 90.6591V92.0227C141.358 92.0114 141.254 91.9943 141.091 91.9716C140.932 91.9451 140.763 91.9318 140.585 91.9318C140.161 91.9318 139.782 92.0208 139.449 92.1989C139.119 92.3731 138.858 92.6155 138.665 92.9261C138.475 93.233 138.381 93.5833 138.381 93.9773V99.5H137.04ZM146.273 99.6818C145.455 99.6818 144.75 99.4886 144.159 99.1023C143.568 98.7159 143.114 98.1837 142.795 97.5057C142.477 96.8277 142.318 96.053 142.318 95.1818C142.318 94.2955 142.481 93.5133 142.807 92.8352C143.136 92.1534 143.595 91.6212 144.182 91.2386C144.773 90.8523 145.462 90.6591 146.25 90.6591C146.864 90.6591 147.417 90.7727 147.909 91C148.402 91.2273 148.805 91.5455 149.119 91.9545C149.434 92.3636 149.629 92.8409 149.705 93.3864H148.364C148.261 92.9886 148.034 92.6364 147.682 92.3295C147.333 92.0189 146.864 91.8636 146.273 91.8636C145.75 91.8636 145.292 92 144.898 92.2727C144.508 92.5417 144.203 92.9223 143.983 93.4148C143.767 93.9034 143.659 94.4773 143.659 95.1364C143.659 95.8106 143.765 96.3977 143.977 96.8977C144.193 97.3977 144.496 97.786 144.886 98.0625C145.28 98.339 145.742 98.4773 146.273 98.4773C146.621 98.4773 146.938 98.4167 147.222 98.2955C147.506 98.1742 147.746 98 147.943 97.7727C148.14 97.5455 148.28 97.2727 148.364 96.9545H149.705C149.629 97.4697 149.441 97.9337 149.142 98.3466C148.847 98.7557 148.455 99.0814 147.966 99.3239C147.481 99.5625 146.917 99.6818 146.273 99.6818ZM157.165 95.9318V90.7727H158.506V99.5H157.165V98.0227H157.074C156.869 98.4659 156.551 98.8428 156.119 99.1534C155.688 99.4602 155.142 99.6136 154.483 99.6136C153.938 99.6136 153.453 99.4943 153.028 99.2557C152.604 99.0133 152.271 98.6496 152.028 98.1648C151.786 97.6761 151.665 97.0606 151.665 96.3182V90.7727H153.006V96.2273C153.006 96.8636 153.184 97.3712 153.54 97.75C153.9 98.1288 154.358 98.3182 154.915 98.3182C155.248 98.3182 155.587 98.233 155.932 98.0625C156.28 97.892 156.572 97.6307 156.807 97.2784C157.045 96.9261 157.165 96.4773 157.165 95.9318ZM172.007 90.7727C171.939 90.197 171.662 89.75 171.178 89.4318C170.693 89.1136 170.098 88.9545 169.393 88.9545C168.878 88.9545 168.428 89.0379 168.041 89.2045C167.659 89.3712 167.359 89.6004 167.143 89.892C166.931 90.1837 166.825 90.5152 166.825 90.8864C166.825 91.197 166.899 91.464 167.047 91.6875C167.198 91.9072 167.392 92.0909 167.626 92.2386C167.861 92.3826 168.107 92.5019 168.365 92.5966C168.623 92.6875 168.859 92.7614 169.075 92.8182L170.257 93.1364C170.56 93.2159 170.897 93.3258 171.268 93.4659C171.643 93.6061 172.001 93.7973 172.342 94.0398C172.687 94.2784 172.971 94.5852 173.195 94.9602C173.418 95.3352 173.53 95.7955 173.53 96.3409C173.53 96.9697 173.365 97.5379 173.036 98.0455C172.71 98.553 172.232 98.9564 171.604 99.2557C170.979 99.5549 170.219 99.7045 169.325 99.7045C168.492 99.7045 167.77 99.5701 167.161 99.3011C166.554 99.0322 166.077 98.6572 165.729 98.1761C165.384 97.6951 165.189 97.1364 165.143 96.5H166.598C166.636 96.9394 166.784 97.303 167.041 97.5909C167.303 97.875 167.632 98.0871 168.03 98.2273C168.431 98.3636 168.863 98.4318 169.325 98.4318C169.863 98.4318 170.346 98.3447 170.774 98.1705C171.202 97.9924 171.541 97.7462 171.791 97.4318C172.041 97.1136 172.166 96.7424 172.166 96.3182C172.166 95.9318 172.058 95.6174 171.842 95.375C171.626 95.1326 171.342 94.9356 170.99 94.7841C170.638 94.6326 170.257 94.5 169.848 94.3864L168.416 93.9773C167.507 93.7159 166.787 93.3428 166.257 92.858C165.727 92.3731 165.462 91.7386 165.462 90.9545C165.462 90.303 165.638 89.7348 165.99 89.25C166.346 88.7614 166.823 88.3826 167.422 88.1136C168.024 87.8409 168.696 87.7045 169.439 87.7045C170.189 87.7045 170.856 87.839 171.439 88.108C172.022 88.3731 172.484 88.7367 172.825 89.1989C173.17 89.661 173.352 90.1856 173.371 90.7727H172.007ZM179.324 99.6818C178.483 99.6818 177.758 99.4962 177.148 99.125C176.542 98.75 176.074 98.2273 175.744 97.5568C175.419 96.8826 175.256 96.0985 175.256 95.2045C175.256 94.3106 175.419 93.5227 175.744 92.8409C176.074 92.1553 176.532 91.6212 177.119 91.2386C177.71 90.8523 178.4 90.6591 179.188 90.6591C179.642 90.6591 180.091 90.7348 180.534 90.8864C180.977 91.0379 181.381 91.2841 181.744 91.625C182.108 91.9621 182.398 92.4091 182.614 92.9659C182.83 93.5227 182.938 94.2083 182.938 95.0227V95.5909H176.21V94.4318H181.574C181.574 93.9394 181.475 93.5 181.278 93.1136C181.085 92.7273 180.809 92.4223 180.449 92.1989C180.093 91.9754 179.672 91.8636 179.188 91.8636C178.653 91.8636 178.191 91.9962 177.801 92.2614C177.415 92.5227 177.117 92.8636 176.909 93.2841C176.701 93.7045 176.597 94.1553 176.597 94.6364V95.4091C176.597 96.0682 176.71 96.6269 176.938 97.0852C177.169 97.5398 177.489 97.8864 177.898 98.125C178.307 98.3598 178.782 98.4773 179.324 98.4773C179.676 98.4773 179.994 98.428 180.278 98.3295C180.566 98.2273 180.814 98.0758 181.023 97.875C181.231 97.6705 181.392 97.4167 181.506 97.1136L182.801 97.4773C182.665 97.9167 182.436 98.303 182.114 98.6364C181.792 98.9659 181.394 99.2235 180.92 99.4091C180.447 99.5909 179.915 99.6818 179.324 99.6818ZM188.273 99.6818C187.545 99.6818 186.903 99.4981 186.347 99.1307C185.79 98.7595 185.354 98.2367 185.04 97.5625C184.725 96.8845 184.568 96.0833 184.568 95.1591C184.568 94.2424 184.725 93.447 185.04 92.7727C185.354 92.0985 185.792 91.5777 186.352 91.2102C186.913 90.8428 187.561 90.6591 188.295 90.6591C188.864 90.6591 189.313 90.7538 189.642 90.9432C189.975 91.1288 190.229 91.3409 190.403 91.5795C190.581 91.8144 190.72 92.0076 190.818 92.1591H190.932V87.8636H192.273V99.5H190.977V98.1591H190.818C190.72 98.3182 190.58 98.5189 190.398 98.7614C190.216 99 189.956 99.214 189.619 99.4034C189.282 99.589 188.833 99.6818 188.273 99.6818ZM188.455 98.4773C188.992 98.4773 189.447 98.3371 189.818 98.0568C190.189 97.7727 190.472 97.3807 190.665 96.8807C190.858 96.3769 190.955 95.7955 190.955 95.1364C190.955 94.4848 190.86 93.9148 190.67 93.4261C190.481 92.9337 190.201 92.5511 189.83 92.2784C189.458 92.0019 189 91.8636 188.455 91.8636C187.886 91.8636 187.413 92.0095 187.034 92.3011C186.659 92.589 186.377 92.9811 186.188 93.4773C186.002 93.9697 185.909 94.5227 185.909 95.1364C185.909 95.7576 186.004 96.322 186.193 96.8295C186.386 97.3333 186.67 97.7348 187.045 98.0341C187.424 98.3295 187.894 98.4773 188.455 98.4773ZM208.824 87.8636V99.5H207.46L201.119 90.3636H201.006V99.5H199.597V87.8636H200.96L207.324 97.0227H207.438V87.8636H208.824ZM215.121 99.6818C214.28 99.6818 213.554 99.4962 212.945 99.125C212.339 98.75 211.871 98.2273 211.541 97.5568C211.215 96.8826 211.053 96.0985 211.053 95.2045C211.053 94.3106 211.215 93.5227 211.541 92.8409C211.871 92.1553 212.329 91.6212 212.916 91.2386C213.507 90.8523 214.196 90.6591 214.984 90.6591C215.439 90.6591 215.888 90.7348 216.331 90.8864C216.774 91.0379 217.178 91.2841 217.541 91.625C217.905 91.9621 218.195 92.4091 218.411 92.9659C218.626 93.5227 218.734 94.2083 218.734 95.0227V95.5909H212.007V94.4318H217.371C217.371 93.9394 217.272 93.5 217.075 93.1136C216.882 92.7273 216.606 92.4223 216.246 92.1989C215.89 91.9754 215.469 91.8636 214.984 91.8636C214.45 91.8636 213.988 91.9962 213.598 92.2614C213.212 92.5227 212.914 92.8636 212.706 93.2841C212.498 93.7045 212.393 94.1553 212.393 94.6364V95.4091C212.393 96.0682 212.507 96.6269 212.734 97.0852C212.965 97.5398 213.286 97.8864 213.695 98.125C214.104 98.3598 214.579 98.4773 215.121 98.4773C215.473 98.4773 215.791 98.428 216.075 98.3295C216.363 98.2273 216.611 98.0758 216.82 97.875C217.028 97.6705 217.189 97.4167 217.303 97.1136L218.598 97.4773C218.462 97.9167 218.232 98.303 217.911 98.6364C217.589 98.9659 217.191 99.2235 216.717 99.4091C216.244 99.5909 215.712 99.6818 215.121 99.6818ZM226.729 102.773V98.1591H226.615C226.517 98.3182 226.376 98.5189 226.195 98.7614C226.013 99 225.753 99.214 225.416 99.4034C225.079 99.589 224.63 99.6818 224.07 99.6818C223.342 99.6818 222.7 99.4981 222.143 99.1307C221.587 98.7595 221.151 98.2367 220.837 97.5625C220.522 96.8845 220.365 96.0833 220.365 95.1591C220.365 94.2424 220.522 93.447 220.837 92.7727C221.151 92.0985 221.589 91.5777 222.149 91.2102C222.71 90.8428 223.357 90.6591 224.092 90.6591C224.661 90.6591 225.109 90.7538 225.439 90.9432C225.772 91.1288 226.026 91.3409 226.2 91.5795C226.378 91.8144 226.517 92.0076 226.615 92.1591H226.774V90.7727H228.07V102.773H226.729ZM224.251 98.4773C224.789 98.4773 225.244 98.3371 225.615 98.0568C225.986 97.7727 226.268 97.3807 226.462 96.8807C226.655 96.3769 226.751 95.7955 226.751 95.1364C226.751 94.4848 226.657 93.9148 226.467 93.4261C226.278 92.9337 225.998 92.5511 225.626 92.2784C225.255 92.0019 224.797 91.8636 224.251 91.8636C223.683 91.8636 223.21 92.0095 222.831 92.3011C222.456 92.589 222.174 92.9811 221.984 93.4773C221.799 93.9697 221.706 94.5227 221.706 95.1364C221.706 95.7576 221.801 96.322 221.99 96.8295C222.183 97.3333 222.467 97.7348 222.842 98.0341C223.221 98.3295 223.691 98.4773 224.251 98.4773ZM236.024 95.9318V90.7727H237.365V99.5H236.024V98.0227H235.933C235.729 98.4659 235.411 98.8428 234.979 99.1534C234.547 99.4602 234.001 99.6136 233.342 99.6136C232.797 99.6136 232.312 99.4943 231.888 99.2557C231.464 99.0133 231.13 98.6496 230.888 98.1648C230.645 97.6761 230.524 97.0606 230.524 96.3182V90.7727H231.865V96.2273C231.865 96.8636 232.043 97.3712 232.399 97.75C232.759 98.1288 233.217 98.3182 233.774 98.3182C234.107 98.3182 234.446 98.233 234.791 98.0625C235.14 97.892 235.431 97.6307 235.666 97.2784C235.905 96.9261 236.024 96.4773 236.024 95.9318ZM243.48 99.6818C242.639 99.6818 241.914 99.4962 241.304 99.125C240.698 98.75 240.23 98.2273 239.901 97.5568C239.575 96.8826 239.412 96.0985 239.412 95.2045C239.412 94.3106 239.575 93.5227 239.901 92.8409C240.23 92.1553 240.688 91.6212 241.276 91.2386C241.866 90.8523 242.556 90.6591 243.344 90.6591C243.798 90.6591 244.247 90.7348 244.69 90.8864C245.134 91.0379 245.537 91.2841 245.901 91.625C246.264 91.9621 246.554 92.4091 246.77 92.9659C246.986 93.5227 247.094 94.2083 247.094 95.0227V95.5909H240.366V94.4318H245.73C245.73 93.9394 245.632 93.5 245.435 93.1136C245.241 92.7273 244.965 92.4223 244.605 92.1989C244.249 91.9754 243.829 91.8636 243.344 91.8636C242.81 91.8636 242.348 91.9962 241.957 92.2614C241.571 92.5227 241.274 92.8636 241.065 93.2841C240.857 93.7045 240.753 94.1553 240.753 94.6364V95.4091C240.753 96.0682 240.866 96.6269 241.094 97.0852C241.325 97.5398 241.645 97.8864 242.054 98.125C242.463 98.3598 242.938 98.4773 243.48 98.4773C243.832 98.4773 244.151 98.428 244.435 98.3295C244.723 98.2273 244.971 98.0758 245.179 97.875C245.387 97.6705 245.548 97.4167 245.662 97.1136L246.957 97.4773C246.821 97.9167 246.592 98.303 246.27 98.6364C245.948 98.9659 245.55 99.2235 245.077 99.4091C244.603 99.5909 244.071 99.6818 243.48 99.6818ZM254.293 99.5H252.815L257.088 87.8636H258.543L262.815 99.5H261.338L257.861 89.7045H257.77L254.293 99.5ZM254.838 94.9545H260.793V96.2045H254.838V94.9545ZM269.605 99.5H268.128L272.401 87.8636H273.855L278.128 99.5H276.651L273.173 89.7045H273.082L269.605 99.5ZM270.151 94.9545H276.105V96.2045H270.151V94.9545ZM283.007 90.7727V91.9091H278.484V90.7727H283.007ZM279.803 88.6818H281.143V97C281.143 97.3788 281.198 97.6629 281.308 97.8523C281.422 98.0379 281.566 98.1629 281.74 98.2273C281.918 98.2879 282.106 98.3182 282.303 98.3182C282.45 98.3182 282.571 98.3106 282.666 98.2955C282.761 98.2765 282.837 98.2614 282.893 98.25L283.166 99.4545C283.075 99.4886 282.948 99.5227 282.786 99.5568C282.623 99.5947 282.416 99.6136 282.166 99.6136C281.787 99.6136 281.416 99.5322 281.053 99.3693C280.693 99.2064 280.393 98.9583 280.155 98.625C279.92 98.2917 279.803 97.8712 279.803 97.3636V88.6818ZM296.07 90.7727C296.001 90.197 295.725 89.75 295.24 89.4318C294.755 89.1136 294.161 88.9545 293.456 88.9545C292.941 88.9545 292.49 89.0379 292.104 89.2045C291.721 89.3712 291.422 89.6004 291.206 89.892C290.994 90.1837 290.888 90.5152 290.888 90.8864C290.888 91.197 290.962 91.464 291.109 91.6875C291.261 91.9072 291.454 92.0909 291.689 92.2386C291.924 92.3826 292.17 92.5019 292.428 92.5966C292.685 92.6875 292.922 92.7614 293.138 92.8182L294.32 93.1364C294.623 93.2159 294.96 93.3258 295.331 93.4659C295.706 93.6061 296.064 93.7973 296.405 94.0398C296.75 94.2784 297.034 94.5852 297.257 94.9602C297.481 95.3352 297.592 95.7955 297.592 96.3409C297.592 96.9697 297.428 97.5379 297.098 98.0455C296.772 98.553 296.295 98.9564 295.666 99.2557C295.041 99.5549 294.282 99.7045 293.388 99.7045C292.554 99.7045 291.833 99.5701 291.223 99.3011C290.617 99.0322 290.14 98.6572 289.791 98.1761C289.446 97.6951 289.251 97.1364 289.206 96.5H290.661C290.698 96.9394 290.846 97.303 291.104 97.5909C291.365 97.875 291.695 98.0871 292.092 98.2273C292.494 98.3636 292.926 98.4318 293.388 98.4318C293.926 98.4318 294.409 98.3447 294.837 98.1705C295.265 97.9924 295.604 97.7462 295.854 97.4318C296.104 97.1136 296.229 96.7424 296.229 96.3182C296.229 95.9318 296.121 95.6174 295.905 95.375C295.689 95.1326 295.405 94.9356 295.053 94.7841C294.7 94.6326 294.32 94.5 293.911 94.3864L292.479 93.9773C291.57 93.7159 290.85 93.3428 290.32 92.858C289.789 92.3731 289.524 91.7386 289.524 90.9545C289.524 90.303 289.7 89.7348 290.053 89.25C290.409 88.7614 290.886 88.3826 291.484 88.1136C292.087 87.8409 292.759 87.7045 293.501 87.7045C294.251 87.7045 294.918 87.839 295.501 88.108C296.085 88.3731 296.547 88.7367 296.888 89.1989C297.232 89.661 297.414 90.1856 297.433 90.7727H296.07ZM303.273 99.6818C302.455 99.6818 301.75 99.4886 301.159 99.1023C300.568 98.7159 300.114 98.1837 299.795 97.5057C299.477 96.8277 299.318 96.053 299.318 95.1818C299.318 94.2955 299.481 93.5133 299.807 92.8352C300.136 92.1534 300.595 91.6212 301.182 91.2386C301.773 90.8523 302.462 90.6591 303.25 90.6591C303.864 90.6591 304.417 90.7727 304.909 91C305.402 91.2273 305.805 91.5455 306.119 91.9545C306.434 92.3636 306.629 92.8409 306.705 93.3864H305.364C305.261 92.9886 305.034 92.6364 304.682 92.3295C304.333 92.0189 303.864 91.8636 303.273 91.8636C302.75 91.8636 302.292 92 301.898 92.2727C301.508 92.5417 301.203 92.9223 300.983 93.4148C300.767 93.9034 300.659 94.4773 300.659 95.1364C300.659 95.8106 300.765 96.3977 300.977 96.8977C301.193 97.3977 301.496 97.786 301.886 98.0625C302.28 98.339 302.742 98.4773 303.273 98.4773C303.621 98.4773 303.938 98.4167 304.222 98.2955C304.506 98.1742 304.746 98 304.943 97.7727C305.14 97.5455 305.28 97.2727 305.364 96.9545H306.705C306.629 97.4697 306.441 97.9337 306.142 98.3466C305.847 98.7557 305.455 99.0814 304.966 99.3239C304.481 99.5625 303.917 99.6818 303.273 99.6818ZM312.324 99.6818C311.483 99.6818 310.758 99.4962 310.148 99.125C309.542 98.75 309.074 98.2273 308.744 97.5568C308.419 96.8826 308.256 96.0985 308.256 95.2045C308.256 94.3106 308.419 93.5227 308.744 92.8409C309.074 92.1553 309.532 91.6212 310.119 91.2386C310.71 90.8523 311.4 90.6591 312.188 90.6591C312.642 90.6591 313.091 90.7348 313.534 90.8864C313.977 91.0379 314.381 91.2841 314.744 91.625C315.108 91.9621 315.398 92.4091 315.614 92.9659C315.83 93.5227 315.938 94.2083 315.938 95.0227V95.5909H309.21V94.4318H314.574C314.574 93.9394 314.475 93.5 314.278 93.1136C314.085 92.7273 313.809 92.4223 313.449 92.1989C313.093 91.9754 312.672 91.8636 312.188 91.8636C311.653 91.8636 311.191 91.9962 310.801 92.2614C310.415 92.5227 310.117 92.8636 309.909 93.2841C309.701 93.7045 309.597 94.1553 309.597 94.6364V95.4091C309.597 96.0682 309.71 96.6269 309.938 97.0852C310.169 97.5398 310.489 97.8864 310.898 98.125C311.307 98.3598 311.782 98.4773 312.324 98.4773C312.676 98.4773 312.994 98.428 313.278 98.3295C313.566 98.2273 313.814 98.0758 314.023 97.875C314.231 97.6705 314.392 97.4167 314.506 97.1136L315.801 97.4773C315.665 97.9167 315.436 98.303 315.114 98.6364C314.792 98.9659 314.394 99.2235 313.92 99.4091C313.447 99.5909 312.915 99.6818 312.324 99.6818ZM319.318 87.8636V99.5H317.977V87.8636H319.318ZM325.433 99.6818C324.592 99.6818 323.867 99.4962 323.257 99.125C322.651 98.75 322.183 98.2273 321.854 97.5568C321.528 96.8826 321.365 96.0985 321.365 95.2045C321.365 94.3106 321.528 93.5227 321.854 92.8409C322.183 92.1553 322.642 91.6212 323.229 91.2386C323.82 90.8523 324.509 90.6591 325.297 90.6591C325.751 90.6591 326.2 90.7348 326.643 90.8864C327.087 91.0379 327.49 91.2841 327.854 91.625C328.217 91.9621 328.507 92.4091 328.723 92.9659C328.939 93.5227 329.047 94.2083 329.047 95.0227V95.5909H322.32V94.4318H327.683C327.683 93.9394 327.585 93.5 327.388 93.1136C327.195 92.7273 326.918 92.4223 326.558 92.1989C326.202 91.9754 325.782 91.8636 325.297 91.8636C324.763 91.8636 324.301 91.9962 323.911 92.2614C323.524 92.5227 323.227 92.8636 323.018 93.2841C322.81 93.7045 322.706 94.1553 322.706 94.6364V95.4091C322.706 96.0682 322.82 96.6269 323.047 97.0852C323.278 97.5398 323.598 97.8864 324.007 98.125C324.416 98.3598 324.892 98.4773 325.433 98.4773C325.786 98.4773 326.104 98.428 326.388 98.3295C326.676 98.2273 326.924 98.0758 327.132 97.875C327.34 97.6705 327.501 97.4167 327.615 97.1136L328.911 97.4773C328.774 97.9167 328.545 98.303 328.223 98.6364C327.901 98.9659 327.503 99.2235 327.03 99.4091C326.556 99.5909 326.024 99.6818 325.433 99.6818ZM331.087 99.5V90.7727H332.382V92.0909H332.473C332.632 91.6591 332.92 91.3087 333.337 91.0398C333.753 90.7708 334.223 90.6364 334.746 90.6364C334.844 90.6364 334.967 90.6383 335.115 90.642C335.263 90.6458 335.375 90.6515 335.45 90.6591V92.0227C335.405 92.0114 335.301 91.9943 335.138 91.9716C334.979 91.9451 334.81 91.9318 334.632 91.9318C334.208 91.9318 333.829 92.0208 333.496 92.1989C333.166 92.3731 332.905 92.6155 332.712 92.9261C332.522 93.233 332.428 93.5833 332.428 93.9773V99.5H331.087ZM337.04 99.5V90.7727H338.381V99.5H337.04ZM337.722 89.3182C337.46 89.3182 337.235 89.2292 337.045 89.0511C336.86 88.8731 336.767 88.6591 336.767 88.4091C336.767 88.1591 336.86 87.9451 337.045 87.767C337.235 87.589 337.46 87.5 337.722 87.5C337.983 87.5 338.206 87.589 338.392 87.767C338.581 87.9451 338.676 88.1591 338.676 88.4091C338.676 88.6591 338.581 88.8731 338.392 89.0511C338.206 89.2292 337.983 89.3182 337.722 89.3182ZM347.018 92.7273L345.814 93.0682C345.738 92.8674 345.626 92.6723 345.479 92.483C345.335 92.2898 345.138 92.1307 344.888 92.0057C344.638 91.8807 344.318 91.8182 343.928 91.8182C343.393 91.8182 342.948 91.9413 342.592 92.1875C342.24 92.4299 342.064 92.7386 342.064 93.1136C342.064 93.447 342.185 93.7102 342.428 93.9034C342.67 94.0966 343.049 94.2576 343.564 94.3864L344.859 94.7045C345.64 94.8939 346.221 95.1837 346.604 95.5739C346.986 95.9602 347.178 96.4583 347.178 97.0682C347.178 97.5682 347.034 98.0152 346.746 98.4091C346.462 98.803 346.064 99.1136 345.553 99.3409C345.041 99.5682 344.446 99.6818 343.768 99.6818C342.878 99.6818 342.142 99.4886 341.558 99.1023C340.975 98.7159 340.606 98.1515 340.45 97.4091L341.723 97.0909C341.844 97.5606 342.073 97.9129 342.411 98.1477C342.751 98.3826 343.196 98.5 343.746 98.5C344.371 98.5 344.867 98.3674 345.234 98.1023C345.606 97.8333 345.791 97.5114 345.791 97.1364C345.791 96.8333 345.685 96.5795 345.473 96.375C345.261 96.1667 344.935 96.0114 344.496 95.9091L343.041 95.5682C342.242 95.3788 341.655 95.0852 341.28 94.6875C340.909 94.286 340.723 93.7841 340.723 93.1818C340.723 92.6894 340.861 92.2538 341.138 91.875C341.418 91.4962 341.799 91.1989 342.28 90.983C342.765 90.767 343.314 90.6591 343.928 90.6591C344.791 90.6591 345.469 90.8485 345.962 91.2273C346.458 91.6061 346.81 92.1061 347.018 92.7273ZM355.151 102.773V98.1591H355.037C354.938 98.3182 354.798 98.5189 354.616 98.7614C354.435 99 354.175 99.214 353.838 99.4034C353.501 99.589 353.052 99.6818 352.491 99.6818C351.764 99.6818 351.122 99.4981 350.565 99.1307C350.009 98.7595 349.573 98.2367 349.259 97.5625C348.944 96.8845 348.787 96.0833 348.787 95.1591C348.787 94.2424 348.944 93.447 349.259 92.7727C349.573 92.0985 350.01 91.5777 350.571 91.2102C351.132 90.8428 351.779 90.6591 352.514 90.6591C353.082 90.6591 353.531 90.7538 353.861 90.9432C354.194 91.1288 354.448 91.3409 354.622 91.5795C354.8 91.8144 354.938 92.0076 355.037 92.1591H355.196V90.7727H356.491V102.773H355.151ZM352.673 98.4773C353.211 98.4773 353.666 98.3371 354.037 98.0568C354.408 97.7727 354.69 97.3807 354.884 96.8807C355.077 96.3769 355.173 95.7955 355.173 95.1364C355.173 94.4848 355.079 93.9148 354.889 93.4261C354.7 92.9337 354.42 92.5511 354.048 92.2784C353.677 92.0019 353.219 91.8636 352.673 91.8636C352.105 91.8636 351.632 92.0095 351.253 92.3011C350.878 92.589 350.596 92.9811 350.406 93.4773C350.221 93.9697 350.128 94.5227 350.128 95.1364C350.128 95.7576 350.223 96.322 350.412 96.8295C350.605 97.3333 350.889 97.7348 351.264 98.0341C351.643 98.3295 352.113 98.4773 352.673 98.4773ZM364.446 95.9318V90.7727H365.787V99.5H364.446V98.0227H364.355C364.151 98.4659 363.832 98.8428 363.401 99.1534C362.969 99.4602 362.423 99.6136 361.764 99.6136C361.219 99.6136 360.734 99.4943 360.31 99.2557C359.885 99.0133 359.552 98.6496 359.31 98.1648C359.067 97.6761 358.946 97.0606 358.946 96.3182V90.7727H360.287V96.2273C360.287 96.8636 360.465 97.3712 360.821 97.75C361.181 98.1288 361.639 98.3182 362.196 98.3182C362.529 98.3182 362.868 98.233 363.213 98.0625C363.562 97.892 363.853 97.6307 364.088 97.2784C364.327 96.9261 364.446 96.4773 364.446 95.9318ZM371.902 99.6818C371.061 99.6818 370.336 99.4962 369.726 99.125C369.12 98.75 368.652 98.2273 368.322 97.5568C367.997 96.8826 367.834 96.0985 367.834 95.2045C367.834 94.3106 367.997 93.5227 368.322 92.8409C368.652 92.1553 369.11 91.6212 369.697 91.2386C370.288 90.8523 370.978 90.6591 371.766 90.6591C372.22 90.6591 372.669 90.7348 373.112 90.8864C373.555 91.0379 373.959 91.2841 374.322 91.625C374.686 91.9621 374.976 92.4091 375.192 92.9659C375.408 93.5227 375.516 94.2083 375.516 95.0227V95.5909H368.788V94.4318H374.152C374.152 93.9394 374.054 93.5 373.857 93.1136C373.663 92.7273 373.387 92.4223 373.027 92.1989C372.671 91.9754 372.25 91.8636 371.766 91.8636C371.232 91.8636 370.769 91.9962 370.379 92.2614C369.993 92.5227 369.696 92.8636 369.487 93.2841C369.279 93.7045 369.175 94.1553 369.175 94.6364V95.4091C369.175 96.0682 369.288 96.6269 369.516 97.0852C369.747 97.5398 370.067 97.8864 370.476 98.125C370.885 98.3598 371.36 98.4773 371.902 98.4773C372.254 98.4773 372.572 98.428 372.857 98.3295C373.144 98.2273 373.393 98.0758 373.601 97.875C373.809 97.6705 373.97 97.4167 374.084 97.1136L375.379 97.4773C375.243 97.9167 375.014 98.303 374.692 98.6364C374.37 98.9659 373.972 99.2235 373.499 99.4091C373.025 99.5909 372.493 99.6818 371.902 99.6818ZM382.237 99.5V87.8636H389.26V89.1136H383.646V93.0455H388.896V94.2955H383.646V98.25H389.351V99.5H382.237ZM392.959 94.25V99.5H391.618V90.7727H392.913V92.1364H393.027C393.232 91.6932 393.542 91.3371 393.959 91.0682C394.375 90.7955 394.913 90.6591 395.572 90.6591C396.163 90.6591 396.68 90.7803 397.124 91.0227C397.567 91.2614 397.911 91.625 398.158 92.1136C398.404 92.5985 398.527 93.2121 398.527 93.9545V99.5H397.186V94.0455C397.186 93.3598 397.008 92.8258 396.652 92.4432C396.296 92.0568 395.807 91.8636 395.186 91.8636C394.758 91.8636 394.375 91.9564 394.038 92.142C393.705 92.3277 393.442 92.5985 393.249 92.9545C393.055 93.3106 392.959 93.7424 392.959 94.25ZM400.977 99.5V90.7727H402.318V99.5H400.977ZM401.659 89.3182C401.398 89.3182 401.172 89.2292 400.983 89.0511C400.797 88.8731 400.705 88.6591 400.705 88.4091C400.705 88.1591 400.797 87.9451 400.983 87.767C401.172 87.589 401.398 87.5 401.659 87.5C401.92 87.5 402.144 87.589 402.33 87.767C402.519 87.9451 402.614 88.1591 402.614 88.4091C402.614 88.6591 402.519 88.8731 402.33 89.0511C402.144 89.2292 401.92 89.3182 401.659 89.3182ZM404.774 99.5V90.7727H406.07V92.1364H406.183C406.365 91.6705 406.659 91.3087 407.064 91.0511C407.469 90.7898 407.956 90.6591 408.524 90.6591C409.1 90.6591 409.579 90.7898 409.962 91.0511C410.348 91.3087 410.649 91.6705 410.865 92.1364H410.956C411.179 91.6856 411.515 91.3277 411.962 91.0625C412.409 90.7936 412.945 90.6591 413.57 90.6591C414.35 90.6591 414.988 90.9034 415.484 91.392C415.981 91.8769 416.229 92.6326 416.229 93.6591V99.5H414.888V93.6591C414.888 93.0152 414.712 92.5549 414.359 92.2784C414.007 92.0019 413.592 91.8636 413.115 91.8636C412.501 91.8636 412.026 92.0492 411.689 92.4205C411.352 92.7879 411.183 93.2538 411.183 93.8182V99.5H409.82V93.5227C409.82 93.0265 409.659 92.6269 409.337 92.3239C409.015 92.017 408.6 91.8636 408.092 91.8636C407.744 91.8636 407.418 91.9564 407.115 92.142C406.816 92.3277 406.573 92.5852 406.388 92.9148C406.206 93.2405 406.115 93.6174 406.115 94.0455V99.5H404.774ZM423.839 99.5H422.362L426.635 87.8636H428.089L432.362 99.5H430.885L427.408 89.7045H427.317L423.839 99.5ZM424.385 94.9545H430.339V96.2045H424.385V94.9545ZM437.288 99.6818C436.561 99.6818 435.919 99.4981 435.362 99.1307C434.805 98.7595 434.37 98.2367 434.055 97.5625C433.741 96.8845 433.584 96.0833 433.584 95.1591C433.584 94.2424 433.741 93.447 434.055 92.7727C434.37 92.0985 434.807 91.5777 435.368 91.2102C435.929 90.8428 436.576 90.6591 437.311 90.6591C437.879 90.6591 438.328 90.7538 438.658 90.9432C438.991 91.1288 439.245 91.3409 439.419 91.5795C439.597 91.8144 439.735 92.0076 439.834 92.1591H439.947V87.8636H441.288V99.5H439.993V98.1591H439.834C439.735 98.3182 439.595 98.5189 439.413 98.7614C439.232 99 438.972 99.214 438.635 99.4034C438.298 99.589 437.849 99.6818 437.288 99.6818ZM437.47 98.4773C438.008 98.4773 438.463 98.3371 438.834 98.0568C439.205 97.7727 439.487 97.3807 439.68 96.8807C439.874 96.3769 439.97 95.7955 439.97 95.1364C439.97 94.4848 439.875 93.9148 439.686 93.4261C439.497 92.9337 439.216 92.5511 438.845 92.2784C438.474 92.0019 438.016 91.8636 437.47 91.8636C436.902 91.8636 436.429 92.0095 436.05 92.3011C435.675 92.589 435.393 92.9811 435.203 93.4773C435.018 93.9697 434.925 94.5227 434.925 95.1364C434.925 95.7576 435.019 96.322 435.209 96.8295C435.402 97.3333 435.686 97.7348 436.061 98.0341C436.44 98.3295 436.91 98.4773 437.47 98.4773ZM443.93 99.5V90.7727H445.271V99.5H443.93ZM444.612 89.3182C444.351 89.3182 444.125 89.2292 443.936 89.0511C443.75 88.8731 443.658 88.6591 443.658 88.4091C443.658 88.1591 443.75 87.9451 443.936 87.767C444.125 87.589 444.351 87.5 444.612 87.5C444.874 87.5 445.097 87.589 445.283 87.767C445.472 87.9451 445.567 88.1591 445.567 88.4091C445.567 88.6591 445.472 88.8731 445.283 89.0511C445.097 89.2292 444.874 89.3182 444.612 89.3182ZM447.727 102.773V90.7727H449.023V92.1591H449.182C449.28 92.0076 449.417 91.8144 449.591 91.5795C449.769 91.3409 450.023 91.1288 450.352 90.9432C450.686 90.7538 451.136 90.6591 451.705 90.6591C452.439 90.6591 453.087 90.8428 453.648 91.2102C454.208 91.5777 454.646 92.0985 454.96 92.7727C455.275 93.447 455.432 94.2424 455.432 95.1591C455.432 96.0833 455.275 96.8845 454.96 97.5625C454.646 98.2367 454.21 98.7595 453.653 99.1307C453.097 99.4981 452.455 99.6818 451.727 99.6818C451.167 99.6818 450.718 99.589 450.381 99.4034C450.044 99.214 449.784 99 449.602 98.7614C449.42 98.5189 449.28 98.3182 449.182 98.1591H449.068V102.773H447.727ZM449.045 95.1364C449.045 95.7955 449.142 96.3769 449.335 96.8807C449.528 97.3807 449.811 97.7727 450.182 98.0568C450.553 98.3371 451.008 98.4773 451.545 98.4773C452.106 98.4773 452.574 98.3295 452.949 98.0341C453.328 97.7348 453.612 97.3333 453.801 96.8295C453.994 96.322 454.091 95.7576 454.091 95.1364C454.091 94.5227 453.996 93.9697 453.807 93.4773C453.621 92.9811 453.339 92.589 452.96 92.3011C452.585 92.0095 452.114 91.8636 451.545 91.8636C451 91.8636 450.542 92.0019 450.17 92.2784C449.799 92.5511 449.519 92.9337 449.33 93.4261C449.14 93.9148 449.045 94.4848 449.045 95.1364ZM457.477 99.5V90.7727H458.818V99.5H457.477ZM458.159 89.3182C457.898 89.3182 457.672 89.2292 457.483 89.0511C457.297 88.8731 457.205 88.6591 457.205 88.4091C457.205 88.1591 457.297 87.9451 457.483 87.767C457.672 87.589 457.898 87.5 458.159 87.5C458.42 87.5 458.644 87.589 458.83 87.767C459.019 87.9451 459.114 88.1591 459.114 88.4091C459.114 88.6591 459.019 88.8731 458.83 89.0511C458.644 89.2292 458.42 89.3182 458.159 89.3182ZM467.456 92.7273L466.251 93.0682C466.176 92.8674 466.064 92.6723 465.916 92.483C465.772 92.2898 465.575 92.1307 465.325 92.0057C465.075 91.8807 464.755 91.8182 464.365 91.8182C463.831 91.8182 463.386 91.9413 463.03 92.1875C462.678 92.4299 462.501 92.7386 462.501 93.1136C462.501 93.447 462.623 93.7102 462.865 93.9034C463.107 94.0966 463.486 94.2576 464.001 94.3864L465.297 94.7045C466.077 94.8939 466.659 95.1837 467.041 95.5739C467.424 95.9602 467.615 96.4583 467.615 97.0682C467.615 97.5682 467.471 98.0152 467.183 98.4091C466.899 98.803 466.501 99.1136 465.99 99.3409C465.479 99.5682 464.884 99.6818 464.206 99.6818C463.316 99.6818 462.579 99.4886 461.996 99.1023C461.412 98.7159 461.043 98.1515 460.888 97.4091L462.161 97.0909C462.282 97.5606 462.511 97.9129 462.848 98.1477C463.189 98.3826 463.634 98.5 464.183 98.5C464.808 98.5 465.304 98.3674 465.672 98.1023C466.043 97.8333 466.229 97.5114 466.229 97.1364C466.229 96.8333 466.123 96.5795 465.911 96.375C465.698 96.1667 465.373 96.0114 464.933 95.9091L463.479 95.5682C462.679 95.3788 462.092 95.0852 461.717 94.6875C461.346 94.286 461.161 93.7841 461.161 93.1818C461.161 92.6894 461.299 92.2538 461.575 91.875C461.856 91.4962 462.236 91.1989 462.717 90.983C463.202 90.767 463.751 90.6591 464.365 90.6591C465.229 90.6591 465.907 90.8485 466.399 91.2273C466.895 91.6061 467.248 92.1061 467.456 92.7273ZM473.179 99.6818C472.361 99.6818 471.656 99.4886 471.065 99.1023C470.474 98.7159 470.02 98.1837 469.702 97.5057C469.384 96.8277 469.224 96.053 469.224 95.1818C469.224 94.2955 469.387 93.5133 469.713 92.8352C470.043 92.1534 470.501 91.6212 471.088 91.2386C471.679 90.8523 472.368 90.6591 473.156 90.6591C473.77 90.6591 474.323 90.7727 474.815 91C475.308 91.2273 475.711 91.5455 476.026 91.9545C476.34 92.3636 476.535 92.8409 476.611 93.3864H475.27C475.168 92.9886 474.94 92.6364 474.588 92.3295C474.24 92.0189 473.77 91.8636 473.179 91.8636C472.656 91.8636 472.198 92 471.804 92.2727C471.414 92.5417 471.109 92.9223 470.889 93.4148C470.673 93.9034 470.565 94.4773 470.565 95.1364C470.565 95.8106 470.671 96.3977 470.884 96.8977C471.099 97.3977 471.402 97.786 471.793 98.0625C472.187 98.339 472.649 98.4773 473.179 98.4773C473.527 98.4773 473.844 98.4167 474.128 98.2955C474.412 98.1742 474.652 98 474.849 97.7727C475.046 97.5455 475.187 97.2727 475.27 96.9545H476.611C476.535 97.4697 476.348 97.9337 476.048 98.3466C475.753 98.7557 475.361 99.0814 474.872 99.3239C474.387 99.5625 473.823 99.6818 473.179 99.6818ZM478.571 99.5V90.7727H479.912V99.5H478.571ZM479.253 89.3182C478.991 89.3182 478.766 89.2292 478.577 89.0511C478.391 88.8731 478.298 88.6591 478.298 88.4091C478.298 88.1591 478.391 87.9451 478.577 87.767C478.766 87.589 478.991 87.5 479.253 87.5C479.514 87.5 479.738 87.589 479.923 87.767C480.113 87.9451 480.207 88.1591 480.207 88.4091C480.207 88.6591 480.113 88.8731 479.923 89.0511C479.738 89.2292 479.514 89.3182 479.253 89.3182ZM483.709 94.25V99.5H482.368V90.7727H483.663V92.1364H483.777C483.982 91.6932 484.292 91.3371 484.709 91.0682C485.125 90.7955 485.663 90.6591 486.322 90.6591C486.913 90.6591 487.43 90.7803 487.874 91.0227C488.317 91.2614 488.661 91.625 488.908 92.1136C489.154 92.5985 489.277 93.2121 489.277 93.9545V99.5H487.936V94.0455C487.936 93.3598 487.758 92.8258 487.402 92.4432C487.046 92.0568 486.557 91.8636 485.936 91.8636C485.508 91.8636 485.125 91.9564 484.788 92.142C484.455 92.3277 484.192 92.5985 483.999 92.9545C483.805 93.3106 483.709 93.7424 483.709 94.25ZM495.25 102.955C494.602 102.955 494.045 102.871 493.58 102.705C493.114 102.542 492.725 102.326 492.415 102.057C492.108 101.792 491.864 101.508 491.682 101.205L492.75 100.455C492.871 100.614 493.025 100.795 493.21 101C493.396 101.208 493.65 101.388 493.972 101.54C494.297 101.695 494.723 101.773 495.25 101.773C495.955 101.773 496.536 101.602 496.994 101.261C497.453 100.92 497.682 100.386 497.682 99.6591V97.8864H497.568C497.47 98.0455 497.33 98.2424 497.148 98.4773C496.97 98.7083 496.712 98.9148 496.375 99.0966C496.042 99.2746 495.591 99.3636 495.023 99.3636C494.318 99.3636 493.686 99.197 493.125 98.8636C492.568 98.5303 492.127 98.0455 491.801 97.4091C491.479 96.7727 491.318 96 491.318 95.0909C491.318 94.197 491.475 93.4186 491.79 92.7557C492.104 92.089 492.542 91.5739 493.102 91.2102C493.663 90.8428 494.311 90.6591 495.045 90.6591C495.614 90.6591 496.064 90.7538 496.398 90.9432C496.735 91.1288 496.992 91.3409 497.17 91.5795C497.352 91.8144 497.492 92.0076 497.591 92.1591H497.727V90.7727H499.023V99.75C499.023 100.5 498.852 101.11 498.511 101.58C498.174 102.053 497.72 102.4 497.148 102.619C496.58 102.843 495.947 102.955 495.25 102.955ZM495.205 98.1591C495.742 98.1591 496.197 98.036 496.568 97.7898C496.939 97.5436 497.222 97.1894 497.415 96.7273C497.608 96.2652 497.705 95.7121 497.705 95.0682C497.705 94.4394 497.61 93.8845 497.42 93.4034C497.231 92.9223 496.951 92.5455 496.58 92.2727C496.208 92 495.75 91.8636 495.205 91.8636C494.636 91.8636 494.163 92.0076 493.784 92.2955C493.409 92.5833 493.127 92.9697 492.938 93.4545C492.752 93.9394 492.659 94.4773 492.659 95.0682C492.659 95.6742 492.754 96.2102 492.943 96.6761C493.136 97.1383 493.42 97.5019 493.795 97.767C494.174 98.0284 494.644 98.1591 495.205 98.1591ZM515.386 87.8636V99.5H514.023L507.682 90.3636H507.568V99.5H506.159V87.8636H507.523L513.886 97.0227H514V87.8636H515.386ZM518.024 99.5V90.7727H519.365V99.5H518.024ZM518.706 89.3182C518.445 89.3182 518.219 89.2292 518.03 89.0511C517.844 88.8731 517.751 88.6591 517.751 88.4091C517.751 88.1591 517.844 87.9451 518.03 87.767C518.219 87.589 518.445 87.5 518.706 87.5C518.967 87.5 519.191 87.589 519.376 87.767C519.566 87.9451 519.661 88.1591 519.661 88.4091C519.661 88.6591 519.566 88.8731 519.376 89.0511C519.191 89.2292 518.967 89.3182 518.706 89.3182ZM522.003 99.5V87.8636H523.344V92.1591H523.457C523.556 92.0076 523.692 91.8144 523.866 91.5795C524.045 91.3409 524.298 91.1288 524.628 90.9432C524.961 90.7538 525.412 90.6591 525.98 90.6591C526.715 90.6591 527.363 90.8428 527.923 91.2102C528.484 91.5777 528.921 92.0985 529.236 92.7727C529.55 93.447 529.707 94.2424 529.707 95.1591C529.707 96.0833 529.55 96.8845 529.236 97.5625C528.921 98.2367 528.486 98.7595 527.929 99.1307C527.372 99.4981 526.73 99.6818 526.003 99.6818C525.442 99.6818 524.993 99.589 524.656 99.4034C524.319 99.214 524.06 99 523.878 98.7614C523.696 98.5189 523.556 98.3182 523.457 98.1591H523.298V99.5H522.003ZM523.321 95.1364C523.321 95.7955 523.418 96.3769 523.611 96.8807C523.804 97.3807 524.086 97.7727 524.457 98.0568C524.829 98.3371 525.283 98.4773 525.821 98.4773C526.382 98.4773 526.849 98.3295 527.224 98.0341C527.603 97.7348 527.887 97.3333 528.077 96.8295C528.27 96.322 528.366 95.7576 528.366 95.1364C528.366 94.5227 528.272 93.9697 528.082 93.4773C527.897 92.9811 527.615 92.589 527.236 92.3011C526.861 92.0095 526.389 91.8636 525.821 91.8636C525.276 91.8636 524.817 92.0019 524.446 92.2784C524.075 92.5511 523.795 92.9337 523.605 93.4261C523.416 93.9148 523.321 94.4848 523.321 95.1364ZM533.099 94.25V99.5H531.759V87.8636H533.099V92.1364H533.213C533.418 91.6856 533.724 91.3277 534.134 91.0625C534.546 90.7936 535.096 90.6591 535.781 90.6591C536.376 90.6591 536.897 90.7784 537.344 91.017C537.791 91.2519 538.137 91.6136 538.384 92.1023C538.634 92.5871 538.759 93.2045 538.759 93.9545V99.5H537.418V94.0455C537.418 93.3523 537.238 92.8163 536.878 92.4375C536.522 92.0549 536.027 91.8636 535.395 91.8636C534.955 91.8636 534.562 91.9564 534.213 92.142C533.868 92.3277 533.596 92.5985 533.395 92.9545C533.198 93.3106 533.099 93.7424 533.099 94.25ZM542.189 99.5909C541.909 99.5909 541.668 99.4905 541.467 99.2898C541.267 99.089 541.166 98.8485 541.166 98.5682C541.166 98.2879 541.267 98.0473 541.467 97.8466C541.668 97.6458 541.909 97.5455 542.189 97.5455C542.469 97.5455 542.71 97.6458 542.911 97.8466C543.111 98.0473 543.212 98.2879 543.212 98.5682C543.212 98.7538 543.164 98.9242 543.07 99.0795C542.979 99.2348 542.856 99.3598 542.7 99.4545C542.549 99.5455 542.378 99.5909 542.189 99.5909Z" fill="white"/>
<rect x="813.5" y="40.5" width="465" height="63" rx="9.5" fill="white"/>
<rect x="813.5" y="40.5" width="465" height="63" rx="9.5" stroke="#EAECF0"/>
<path d="M844.409 78V66.3636H851.432V67.6136H845.818V71.5455H851.068V72.7955H845.818V76.75H851.523V78H844.409ZM855.131 72.75V78H853.79V69.2727H855.085V70.6364H855.199C855.403 70.1932 855.714 69.8371 856.131 69.5682C856.547 69.2955 857.085 69.1591 857.744 69.1591C858.335 69.1591 858.852 69.2803 859.295 69.5227C859.739 69.7614 860.083 70.125 860.33 70.6136C860.576 71.0985 860.699 71.7121 860.699 72.4545V78H859.358V72.5455C859.358 71.8598 859.18 71.3258 858.824 70.9432C858.468 70.5568 857.979 70.3636 857.358 70.3636C856.93 70.3636 856.547 70.4564 856.21 70.642C855.877 70.8277 855.614 71.0985 855.42 71.4545C855.227 71.8106 855.131 72.2424 855.131 72.75ZM866.945 69.2727V70.4091H862.422V69.2727H866.945ZM863.74 67.1818H865.081V75.5C865.081 75.8788 865.136 76.1629 865.246 76.3523C865.359 76.5379 865.503 76.6629 865.678 76.7273C865.856 76.7879 866.043 76.8182 866.24 76.8182C866.388 76.8182 866.509 76.8106 866.604 76.7955C866.698 76.7765 866.774 76.7614 866.831 76.75L867.104 77.9545C867.013 77.9886 866.886 78.0227 866.723 78.0568C866.56 78.0947 866.354 78.1136 866.104 78.1136C865.725 78.1136 865.354 78.0322 864.99 77.8693C864.63 77.7064 864.331 77.4583 864.092 77.125C863.857 76.7917 863.74 76.3712 863.74 75.8636V67.1818ZM872.527 78.1818C871.686 78.1818 870.961 77.9962 870.351 77.625C869.745 77.25 869.277 76.7273 868.947 76.0568C868.622 75.3826 868.459 74.5985 868.459 73.7045C868.459 72.8106 868.622 72.0227 868.947 71.3409C869.277 70.6553 869.735 70.1212 870.322 69.7386C870.913 69.3523 871.603 69.1591 872.391 69.1591C872.845 69.1591 873.294 69.2348 873.737 69.3864C874.18 69.5379 874.584 69.7841 874.947 70.125C875.311 70.4621 875.601 70.9091 875.817 71.4659C876.033 72.0227 876.141 72.7083 876.141 73.5227V74.0909H869.413V72.9318H874.777C874.777 72.4394 874.679 72 874.482 71.6136C874.288 71.2273 874.012 70.9223 873.652 70.6989C873.296 70.4754 872.875 70.3636 872.391 70.3636C871.857 70.3636 871.394 70.4962 871.004 70.7614C870.618 71.0227 870.321 71.3636 870.112 71.7841C869.904 72.2045 869.8 72.6553 869.8 73.1364V73.9091C869.8 74.5682 869.913 75.1269 870.141 75.5852C870.372 76.0398 870.692 76.3864 871.101 76.625C871.51 76.8598 871.985 76.9773 872.527 76.9773C872.879 76.9773 873.197 76.928 873.482 76.8295C873.769 76.7273 874.018 76.5758 874.226 76.375C874.434 76.1705 874.595 75.9167 874.709 75.6136L876.004 75.9773C875.868 76.4167 875.639 76.803 875.317 77.1364C874.995 77.4659 874.597 77.7235 874.124 77.9091C873.65 78.0909 873.118 78.1818 872.527 78.1818ZM878.18 78V69.2727H879.476V70.5909H879.567C879.726 70.1591 880.014 69.8087 880.43 69.5398C880.847 69.2708 881.317 69.1364 881.839 69.1364C881.938 69.1364 882.061 69.1383 882.209 69.142C882.357 69.1458 882.468 69.1515 882.544 69.1591V70.5227C882.499 70.5114 882.394 70.4943 882.232 70.4716C882.072 70.4451 881.904 70.4318 881.726 70.4318C881.302 70.4318 880.923 70.5208 880.589 70.6989C880.26 70.8731 879.999 71.1155 879.805 71.4261C879.616 71.733 879.521 72.0833 879.521 72.4773V78H878.18ZM889.497 81.2727C889.27 81.2727 889.067 81.2538 888.889 81.2159C888.711 81.1818 888.588 81.1477 888.52 81.1136L888.861 79.9318C889.187 80.0152 889.474 80.0455 889.724 80.0227C889.974 80 890.196 79.8883 890.389 79.6875C890.586 79.4905 890.766 79.1705 890.929 78.7273L891.179 78.0455L887.952 69.2727H889.406L891.815 76.2273H891.906L894.315 69.2727H895.77L892.065 79.2727C891.899 79.7235 891.692 80.0966 891.446 80.392C891.2 80.6913 890.914 80.9129 890.588 81.0568C890.266 81.2008 889.902 81.2727 889.497 81.2727ZM900.773 78.1818C899.985 78.1818 899.294 77.9943 898.699 77.6193C898.108 77.2443 897.646 76.7197 897.312 76.0455C896.983 75.3712 896.818 74.5833 896.818 73.6818C896.818 72.7727 896.983 71.9792 897.312 71.3011C897.646 70.6231 898.108 70.0966 898.699 69.7216C899.294 69.3466 899.985 69.1591 900.773 69.1591C901.561 69.1591 902.25 69.3466 902.841 69.7216C903.436 70.0966 903.898 70.6231 904.227 71.3011C904.561 71.9792 904.727 72.7727 904.727 73.6818C904.727 74.5833 904.561 75.3712 904.227 76.0455C903.898 76.7197 903.436 77.2443 902.841 77.6193C902.25 77.9943 901.561 78.1818 900.773 78.1818ZM900.773 76.9773C901.371 76.9773 901.864 76.8239 902.25 76.517C902.636 76.2102 902.922 75.8068 903.108 75.3068C903.294 74.8068 903.386 74.2652 903.386 73.6818C903.386 73.0985 903.294 72.5549 903.108 72.0511C902.922 71.5473 902.636 71.1402 902.25 70.8295C901.864 70.5189 901.371 70.3636 900.773 70.3636C900.174 70.3636 899.682 70.5189 899.295 70.8295C898.909 71.1402 898.623 71.5473 898.438 72.0511C898.252 72.5549 898.159 73.0985 898.159 73.6818C898.159 74.2652 898.252 74.8068 898.438 75.3068C898.623 75.8068 898.909 76.2102 899.295 76.517C899.682 76.8239 900.174 76.9773 900.773 76.9773ZM912.274 74.4318V69.2727H913.615V78H912.274V76.5227H912.183C911.979 76.9659 911.661 77.3428 911.229 77.6534C910.797 77.9602 910.251 78.1136 909.592 78.1136C909.047 78.1136 908.562 77.9943 908.138 77.7557C907.714 77.5133 907.38 77.1496 907.138 76.6648C906.895 76.1761 906.774 75.5606 906.774 74.8182V69.2727H908.115V74.7273C908.115 75.3636 908.293 75.8712 908.649 76.25C909.009 76.6288 909.467 76.8182 910.024 76.8182C910.357 76.8182 910.696 76.733 911.041 76.5625C911.39 76.392 911.681 76.1307 911.916 75.7784C912.155 75.4261 912.274 74.9773 912.274 74.4318ZM916.071 78V69.2727H917.366V70.5909H917.457C917.616 70.1591 917.904 69.8087 918.321 69.5398C918.738 69.2708 919.207 69.1364 919.73 69.1364C919.829 69.1364 919.952 69.1383 920.099 69.142C920.247 69.1458 920.359 69.1515 920.435 69.1591V70.5227C920.389 70.5114 920.285 70.4943 920.122 70.4716C919.963 70.4451 919.795 70.4318 919.616 70.4318C919.192 70.4318 918.813 70.5208 918.48 70.6989C918.151 70.8731 917.889 71.1155 917.696 71.4261C917.507 71.733 917.412 72.0833 917.412 72.4773V78H916.071ZM930.183 78.1818C929.342 78.1818 928.617 77.9962 928.007 77.625C927.401 77.25 926.933 76.7273 926.604 76.0568C926.278 75.3826 926.115 74.5985 926.115 73.7045C926.115 72.8106 926.278 72.0227 926.604 71.3409C926.933 70.6553 927.392 70.1212 927.979 69.7386C928.57 69.3523 929.259 69.1591 930.047 69.1591C930.501 69.1591 930.95 69.2348 931.393 69.3864C931.837 69.5379 932.24 69.7841 932.604 70.125C932.967 70.4621 933.257 70.9091 933.473 71.4659C933.689 72.0227 933.797 72.7083 933.797 73.5227V74.0909H927.07V72.9318H932.433C932.433 72.4394 932.335 72 932.138 71.6136C931.945 71.2273 931.668 70.9223 931.308 70.6989C930.952 70.4754 930.532 70.3636 930.047 70.3636C929.513 70.3636 929.051 70.4962 928.661 70.7614C928.274 71.0227 927.977 71.3636 927.768 71.7841C927.56 72.2045 927.456 72.6553 927.456 73.1364V73.9091C927.456 74.5682 927.57 75.1269 927.797 75.5852C928.028 76.0398 928.348 76.3864 928.757 76.625C929.166 76.8598 929.642 76.9773 930.183 76.9773C930.536 76.9773 930.854 76.928 931.138 76.8295C931.426 76.7273 931.674 76.5758 931.882 76.375C932.09 76.1705 932.251 75.9167 932.365 75.6136L933.661 75.9773C933.524 76.4167 933.295 76.803 932.973 77.1364C932.651 77.4659 932.253 77.7235 931.78 77.9091C931.306 78.0909 930.774 78.1818 930.183 78.1818ZM935.837 78V69.2727H937.132V70.6364H937.246C937.428 70.1705 937.721 69.8087 938.126 69.5511C938.532 69.2898 939.018 69.1591 939.587 69.1591C940.162 69.1591 940.642 69.2898 941.024 69.5511C941.411 69.8087 941.712 70.1705 941.928 70.6364H942.018C942.242 70.1856 942.577 69.8277 943.024 69.5625C943.471 69.2936 944.007 69.1591 944.632 69.1591C945.412 69.1591 946.051 69.4034 946.547 69.892C947.043 70.3769 947.291 71.1326 947.291 72.1591V78H945.95V72.1591C945.95 71.5152 945.774 71.0549 945.422 70.7784C945.07 70.5019 944.655 70.3636 944.178 70.3636C943.564 70.3636 943.089 70.5492 942.751 70.9205C942.414 71.2879 942.246 71.7538 942.246 72.3182V78H940.882V72.0227C940.882 71.5265 940.721 71.1269 940.399 70.8239C940.077 70.517 939.662 70.3636 939.155 70.3636C938.806 70.3636 938.481 70.4564 938.178 70.642C937.878 70.8277 937.636 71.0852 937.45 71.4148C937.268 71.7405 937.178 72.1174 937.178 72.5455V78H935.837ZM952.311 78.2045C951.758 78.2045 951.256 78.1004 950.805 77.892C950.355 77.6799 949.997 77.375 949.732 76.9773C949.466 76.5758 949.334 76.0909 949.334 75.5227C949.334 75.0227 949.432 74.6174 949.629 74.3068C949.826 73.9924 950.089 73.7462 950.419 73.5682C950.749 73.3902 951.112 73.2576 951.51 73.1705C951.911 73.0795 952.315 73.0076 952.72 72.9545C953.25 72.8864 953.68 72.8352 954.01 72.8011C954.343 72.7633 954.586 72.7008 954.737 72.6136C954.893 72.5265 954.97 72.375 954.97 72.1591V72.1136C954.97 71.553 954.817 71.1174 954.51 70.8068C954.207 70.4962 953.747 70.3409 953.129 70.3409C952.489 70.3409 951.987 70.4811 951.624 70.7614C951.26 71.0417 951.004 71.3409 950.857 71.6591L949.584 71.2045C949.811 70.6742 950.114 70.2614 950.493 69.9659C950.875 69.6667 951.292 69.4583 951.743 69.3409C952.197 69.2197 952.644 69.1591 953.084 69.1591C953.364 69.1591 953.686 69.1932 954.05 69.2614C954.417 69.3258 954.771 69.4602 955.112 69.6648C955.457 69.8693 955.743 70.178 955.97 70.5909C956.197 71.0038 956.311 71.5568 956.311 72.25V78H954.97V76.8182H954.902C954.811 77.0076 954.66 77.2102 954.447 77.4261C954.235 77.642 953.953 77.8258 953.601 77.9773C953.249 78.1288 952.819 78.2045 952.311 78.2045ZM952.516 77C953.046 77 953.493 76.8958 953.857 76.6875C954.224 76.4792 954.5 76.2102 954.686 75.8807C954.875 75.5511 954.97 75.2045 954.97 74.8409V73.6136C954.913 73.6818 954.788 73.7443 954.595 73.8011C954.406 73.8542 954.186 73.9015 953.936 73.9432C953.69 73.9811 953.449 74.0152 953.214 74.0455C952.983 74.072 952.796 74.0947 952.652 74.1136C952.304 74.1591 951.978 74.233 951.675 74.3352C951.375 74.4337 951.133 74.5833 950.947 74.7841C950.766 74.9811 950.675 75.25 950.675 75.5909C950.675 76.0568 950.847 76.4091 951.192 76.6477C951.54 76.8826 951.982 77 952.516 77ZM958.759 78V69.2727H960.099V78H958.759ZM959.44 67.8182C959.179 67.8182 958.954 67.7292 958.764 67.5511C958.579 67.3731 958.486 67.1591 958.486 66.9091C958.486 66.6591 958.579 66.4451 958.764 66.267C958.954 66.089 959.179 66 959.44 66C959.702 66 959.925 66.089 960.111 66.267C960.3 66.4451 960.395 66.6591 960.395 66.9091C960.395 67.1591 960.3 67.3731 960.111 67.5511C959.925 67.7292 959.702 67.8182 959.44 67.8182ZM963.896 66.3636V78H962.555V66.3636H963.896ZM973.42 78.2045C972.867 78.2045 972.366 78.1004 971.915 77.892C971.464 77.6799 971.106 77.375 970.841 76.9773C970.576 76.5758 970.443 76.0909 970.443 75.5227C970.443 75.0227 970.542 74.6174 970.739 74.3068C970.936 73.9924 971.199 73.7462 971.528 73.5682C971.858 73.3902 972.222 73.2576 972.619 73.1705C973.021 73.0795 973.424 73.0076 973.83 72.9545C974.36 72.8864 974.79 72.8352 975.119 72.8011C975.453 72.7633 975.695 72.7008 975.847 72.6136C976.002 72.5265 976.08 72.375 976.08 72.1591V72.1136C976.08 71.553 975.926 71.1174 975.619 70.8068C975.316 70.4962 974.856 70.3409 974.239 70.3409C973.598 70.3409 973.097 70.4811 972.733 70.7614C972.369 71.0417 972.114 71.3409 971.966 71.6591L970.693 71.2045C970.92 70.6742 971.223 70.2614 971.602 69.9659C971.985 69.6667 972.402 69.4583 972.852 69.3409C973.307 69.2197 973.754 69.1591 974.193 69.1591C974.473 69.1591 974.795 69.1932 975.159 69.2614C975.527 69.3258 975.881 69.4602 976.222 69.6648C976.566 69.8693 976.852 70.178 977.08 70.5909C977.307 71.0038 977.42 71.5568 977.42 72.25V78H976.08V76.8182H976.011C975.92 77.0076 975.769 77.2102 975.557 77.4261C975.345 77.642 975.063 77.8258 974.71 77.9773C974.358 78.1288 973.928 78.2045 973.42 78.2045ZM973.625 77C974.155 77 974.602 76.8958 974.966 76.6875C975.333 76.4792 975.61 76.2102 975.795 75.8807C975.985 75.5511 976.08 75.2045 976.08 74.8409V73.6136C976.023 73.6818 975.898 73.7443 975.705 73.8011C975.515 73.8542 975.295 73.9015 975.045 73.9432C974.799 73.9811 974.559 74.0152 974.324 74.0455C974.093 74.072 973.905 74.0947 973.761 74.1136C973.413 74.1591 973.087 74.233 972.784 74.3352C972.485 74.4337 972.242 74.5833 972.057 74.7841C971.875 74.9811 971.784 75.25 971.784 75.5909C971.784 76.0568 971.956 76.4091 972.301 76.6477C972.65 76.8826 973.091 77 973.625 77ZM983.163 78.1818C982.436 78.1818 981.794 77.9981 981.237 77.6307C980.68 77.2595 980.245 76.7367 979.93 76.0625C979.616 75.3845 979.459 74.5833 979.459 73.6591C979.459 72.7424 979.616 71.947 979.93 71.2727C980.245 70.5985 980.682 70.0777 981.243 69.7102C981.804 69.3428 982.451 69.1591 983.186 69.1591C983.754 69.1591 984.203 69.2538 984.533 69.4432C984.866 69.6288 985.12 69.8409 985.294 70.0795C985.472 70.3144 985.61 70.5076 985.709 70.6591H985.822V66.3636H987.163V78H985.868V76.6591H985.709C985.61 76.8182 985.47 77.0189 985.288 77.2614C985.107 77.5 984.847 77.714 984.51 77.9034C984.173 78.089 983.724 78.1818 983.163 78.1818ZM983.345 76.9773C983.883 76.9773 984.338 76.8371 984.709 76.5568C985.08 76.2727 985.362 75.8807 985.555 75.3807C985.749 74.8769 985.845 74.2955 985.845 73.6364C985.845 72.9848 985.75 72.4148 985.561 71.9261C985.372 71.4337 985.091 71.0511 984.72 70.7784C984.349 70.5019 983.891 70.3636 983.345 70.3636C982.777 70.3636 982.304 70.5095 981.925 70.8011C981.55 71.089 981.268 71.4811 981.078 71.9773C980.893 72.4697 980.8 73.0227 980.8 73.6364C980.8 74.2576 980.894 74.822 981.084 75.3295C981.277 75.8333 981.561 76.2348 981.936 76.5341C982.315 76.8295 982.785 76.9773 983.345 76.9773ZM993.101 78.1818C992.374 78.1818 991.732 77.9981 991.175 77.6307C990.618 77.2595 990.182 76.7367 989.868 76.0625C989.554 75.3845 989.396 74.5833 989.396 73.6591C989.396 72.7424 989.554 71.947 989.868 71.2727C990.182 70.5985 990.62 70.0777 991.18 69.7102C991.741 69.3428 992.389 69.1591 993.124 69.1591C993.692 69.1591 994.141 69.2538 994.47 69.4432C994.804 69.6288 995.057 69.8409 995.232 70.0795C995.41 70.3144 995.548 70.5076 995.646 70.6591H995.76V66.3636H997.101V78H995.805V76.6591H995.646C995.548 76.8182 995.408 77.0189 995.226 77.2614C995.044 77.5 994.785 77.714 994.447 77.9034C994.11 78.089 993.661 78.1818 993.101 78.1818ZM993.283 76.9773C993.821 76.9773 994.275 76.8371 994.646 76.5568C995.018 76.2727 995.3 75.8807 995.493 75.3807C995.686 74.8769 995.783 74.2955 995.783 73.6364C995.783 72.9848 995.688 72.4148 995.499 71.9261C995.309 71.4337 995.029 71.0511 994.658 70.7784C994.286 70.5019 993.828 70.3636 993.283 70.3636C992.714 70.3636 992.241 70.5095 991.862 70.8011C991.487 71.089 991.205 71.4811 991.016 71.9773C990.83 72.4697 990.737 73.0227 990.737 73.6364C990.737 74.2576 990.832 74.822 991.021 75.3295C991.214 75.8333 991.499 76.2348 991.874 76.5341C992.252 76.8295 992.722 76.9773 993.283 76.9773ZM999.743 78V69.2727H1001.04V70.5909H1001.13C1001.29 70.1591 1001.58 69.8087 1001.99 69.5398C1002.41 69.2708 1002.88 69.1364 1003.4 69.1364C1003.5 69.1364 1003.62 69.1383 1003.77 69.142C1003.92 69.1458 1004.03 69.1515 1004.11 69.1591V70.5227C1004.06 70.5114 1003.96 70.4943 1003.79 70.4716C1003.63 70.4451 1003.47 70.4318 1003.29 70.4318C1002.86 70.4318 1002.49 70.5208 1002.15 70.6989C1001.82 70.8731 1001.56 71.1155 1001.37 71.4261C1001.18 71.733 1001.08 72.0833 1001.08 72.4773V78H999.743ZM1009.09 78.1818C1008.25 78.1818 1007.52 77.9962 1006.91 77.625C1006.31 77.25 1005.84 76.7273 1005.51 76.0568C1005.18 75.3826 1005.02 74.5985 1005.02 73.7045C1005.02 72.8106 1005.18 72.0227 1005.51 71.3409C1005.84 70.6553 1006.3 70.1212 1006.88 69.7386C1007.48 69.3523 1008.17 69.1591 1008.95 69.1591C1009.41 69.1591 1009.86 69.2348 1010.3 69.3864C1010.74 69.5379 1011.15 69.7841 1011.51 70.125C1011.87 70.4621 1012.16 70.9091 1012.38 71.4659C1012.6 72.0227 1012.7 72.7083 1012.7 73.5227V74.0909H1005.98V72.9318H1011.34C1011.34 72.4394 1011.24 72 1011.04 71.6136C1010.85 71.2273 1010.57 70.9223 1010.21 70.6989C1009.86 70.4754 1009.44 70.3636 1008.95 70.3636C1008.42 70.3636 1007.96 70.4962 1007.57 70.7614C1007.18 71.0227 1006.88 71.3636 1006.67 71.7841C1006.47 72.2045 1006.36 72.6553 1006.36 73.1364V73.9091C1006.36 74.5682 1006.48 75.1269 1006.7 75.5852C1006.93 76.0398 1007.25 76.3864 1007.66 76.625C1008.07 76.8598 1008.55 76.9773 1009.09 76.9773C1009.44 76.9773 1009.76 76.928 1010.04 76.8295C1010.33 76.7273 1010.58 76.5758 1010.79 76.375C1011 76.1705 1011.16 75.9167 1011.27 75.6136L1012.57 75.9773C1012.43 76.4167 1012.2 76.803 1011.88 77.1364C1011.56 77.4659 1011.16 77.7235 1010.69 77.9091C1010.21 78.0909 1009.68 78.1818 1009.09 78.1818ZM1020.92 71.2273L1019.72 71.5682C1019.64 71.3674 1019.53 71.1723 1019.38 70.983C1019.24 70.7898 1019.04 70.6307 1018.79 70.5057C1018.54 70.3807 1018.22 70.3182 1017.83 70.3182C1017.3 70.3182 1016.85 70.4413 1016.5 70.6875C1016.15 70.9299 1015.97 71.2386 1015.97 71.6136C1015.97 71.947 1016.09 72.2102 1016.33 72.4034C1016.58 72.5966 1016.96 72.7576 1017.47 72.8864L1018.77 73.2045C1019.55 73.3939 1020.13 73.6837 1020.51 74.0739C1020.89 74.4602 1021.08 74.9583 1021.08 75.5682C1021.08 76.0682 1020.94 76.5152 1020.65 76.9091C1020.37 77.303 1019.97 77.6136 1019.46 77.8409C1018.95 78.0682 1018.35 78.1818 1017.67 78.1818C1016.78 78.1818 1016.05 77.9886 1015.46 77.6023C1014.88 77.2159 1014.51 76.6515 1014.36 75.9091L1015.63 75.5909C1015.75 76.0606 1015.98 76.4129 1016.32 76.6477C1016.66 76.8826 1017.1 77 1017.65 77C1018.28 77 1018.77 76.8674 1019.14 76.6023C1019.51 76.3333 1019.7 76.0114 1019.7 75.6364C1019.7 75.3333 1019.59 75.0795 1019.38 74.875C1019.17 74.6667 1018.84 74.5114 1018.4 74.4091L1016.95 74.0682C1016.15 73.8788 1015.56 73.5852 1015.19 73.1875C1014.81 72.786 1014.63 72.2841 1014.63 71.6818C1014.63 71.1894 1014.77 70.7538 1015.04 70.375C1015.32 69.9962 1015.71 69.6989 1016.19 69.483C1016.67 69.267 1017.22 69.1591 1017.83 69.1591C1018.7 69.1591 1019.38 69.3485 1019.87 69.7273C1020.36 70.1061 1020.72 70.6061 1020.92 71.2273ZM1029.28 71.2273L1028.08 71.5682C1028 71.3674 1027.89 71.1723 1027.74 70.983C1027.6 70.7898 1027.4 70.6307 1027.15 70.5057C1026.9 70.3807 1026.58 70.3182 1026.19 70.3182C1025.66 70.3182 1025.21 70.4413 1024.86 70.6875C1024.51 70.9299 1024.33 71.2386 1024.33 71.6136C1024.33 71.947 1024.45 72.2102 1024.69 72.4034C1024.94 72.5966 1025.31 72.7576 1025.83 72.8864L1027.12 73.2045C1027.91 73.3939 1028.49 73.6837 1028.87 74.0739C1029.25 74.4602 1029.44 74.9583 1029.44 75.5682C1029.44 76.0682 1029.3 76.5152 1029.01 76.9091C1028.73 77.303 1028.33 77.6136 1027.82 77.8409C1027.31 78.0682 1026.71 78.1818 1026.03 78.1818C1025.14 78.1818 1024.41 77.9886 1023.82 77.6023C1023.24 77.2159 1022.87 76.6515 1022.72 75.9091L1023.99 75.5909C1024.11 76.0606 1024.34 76.4129 1024.68 76.6477C1025.02 76.8826 1025.46 77 1026.01 77C1026.64 77 1027.13 76.8674 1027.5 76.6023C1027.87 76.3333 1028.06 76.0114 1028.06 75.6364C1028.06 75.3333 1027.95 75.0795 1027.74 74.875C1027.53 74.6667 1027.2 74.5114 1026.76 74.4091L1025.31 74.0682C1024.51 73.8788 1023.92 73.5852 1023.55 73.1875C1023.17 72.786 1022.99 72.2841 1022.99 71.6818C1022.99 71.1894 1023.13 70.7538 1023.4 70.375C1023.68 69.9962 1024.06 69.6989 1024.55 69.483C1025.03 69.267 1025.58 69.1591 1026.19 69.1591C1027.06 69.1591 1027.73 69.3485 1028.23 69.7273C1028.72 70.1061 1029.08 70.6061 1029.28 71.2273Z" fill="#ABAEBB"/>
<rect x="1151.5" y="50.5" width="117" height="43" rx="5.5" fill="#F1654C"/>
<rect x="1151.5" y="50.5" width="117" height="43" rx="5.5" stroke="#F1654C"/>
<path d="M1178.62 69.4205C1178.56 68.8826 1178.31 68.4659 1177.88 68.1705C1177.44 67.8712 1176.88 67.7216 1176.22 67.7216C1175.74 67.7216 1175.33 67.7973 1174.98 67.9489C1174.63 68.0966 1174.36 68.3011 1174.16 68.5625C1173.98 68.8201 1173.88 69.1136 1173.88 69.4432C1173.88 69.7197 1173.95 69.9583 1174.07 70.1591C1174.21 70.3598 1174.38 70.5284 1174.59 70.6648C1174.81 70.7973 1175.04 70.9091 1175.28 71C1175.53 71.0871 1175.77 71.1591 1175.99 71.2159L1177.13 71.5114C1177.5 71.6023 1177.88 71.7254 1178.27 71.8807C1178.66 72.036 1179.02 72.2405 1179.36 72.4943C1179.69 72.7481 1179.96 73.0625 1180.16 73.4375C1180.37 73.8125 1180.48 74.2614 1180.48 74.7841C1180.48 75.4432 1180.31 76.0284 1179.97 76.5398C1179.63 77.0511 1179.14 77.4545 1178.49 77.75C1177.85 78.0455 1177.08 78.1932 1176.17 78.1932C1175.3 78.1932 1174.55 78.0549 1173.91 77.7784C1173.27 77.5019 1172.77 77.1098 1172.41 76.6023C1172.05 76.0909 1171.86 75.4848 1171.82 74.7841H1173.58C1173.61 75.2045 1173.75 75.5549 1173.99 75.8352C1174.23 76.1117 1174.54 76.3182 1174.91 76.4545C1175.29 76.5871 1175.71 76.6534 1176.16 76.6534C1176.66 76.6534 1177.1 76.5758 1177.48 76.4205C1177.87 76.2614 1178.18 76.0417 1178.4 75.7614C1178.63 75.4773 1178.74 75.1458 1178.74 74.767C1178.74 74.4223 1178.64 74.1402 1178.44 73.9205C1178.25 73.7008 1177.99 73.5189 1177.65 73.375C1177.32 73.2311 1176.95 73.1042 1176.53 72.9943L1175.16 72.6193C1174.23 72.3655 1173.49 71.9924 1172.94 71.5C1172.4 71.0076 1172.13 70.3561 1172.13 69.5455C1172.13 68.875 1172.31 68.2898 1172.68 67.7898C1173.04 67.2898 1173.53 66.9015 1174.15 66.625C1174.77 66.3447 1175.48 66.2045 1176.26 66.2045C1177.04 66.2045 1177.74 66.3428 1178.34 66.6193C1178.95 66.8958 1179.42 67.2765 1179.77 67.7614C1180.12 68.2424 1180.3 68.7955 1180.32 69.4205H1178.62ZM1187.97 74.3807V69.2727H1189.67V78H1188V76.4886H1187.91C1187.71 76.9545 1187.39 77.3428 1186.94 77.6534C1186.51 77.9602 1185.96 78.1136 1185.3 78.1136C1184.74 78.1136 1184.25 77.9905 1183.81 77.7443C1183.39 77.4943 1183.05 77.125 1182.8 76.6364C1182.56 76.1477 1182.44 75.5436 1182.44 74.8239V69.2727H1184.14V74.6193C1184.14 75.214 1184.3 75.6875 1184.63 76.0398C1184.96 76.392 1185.39 76.5682 1185.92 76.5682C1186.23 76.5682 1186.55 76.4886 1186.87 76.3295C1187.18 76.1705 1187.45 75.9299 1187.65 75.608C1187.87 75.286 1187.97 74.8769 1187.97 74.3807ZM1192.09 78V66.3636H1193.79V70.6875H1193.89C1193.99 70.5057 1194.13 70.2955 1194.32 70.0568C1194.5 69.8182 1194.76 69.6098 1195.09 69.4318C1195.42 69.25 1195.86 69.1591 1196.4 69.1591C1197.1 69.1591 1197.73 69.3371 1198.28 69.6932C1198.84 70.0492 1199.27 70.5625 1199.59 71.233C1199.9 71.9034 1200.06 72.7102 1200.06 73.6534C1200.06 74.5966 1199.91 75.4053 1199.59 76.0795C1199.28 76.75 1198.84 77.267 1198.3 77.6307C1197.75 77.9905 1197.12 78.1705 1196.41 78.1705C1195.88 78.1705 1195.45 78.0814 1195.11 77.9034C1194.78 77.7254 1194.52 77.517 1194.33 77.2784C1194.14 77.0398 1193.99 76.8277 1193.89 76.642H1193.75V78H1192.09ZM1193.76 73.6364C1193.76 74.25 1193.84 74.7879 1194.02 75.25C1194.2 75.7121 1194.46 76.0739 1194.8 76.3352C1195.13 76.5928 1195.55 76.7216 1196.03 76.7216C1196.54 76.7216 1196.97 76.5871 1197.31 76.3182C1197.65 76.0455 1197.91 75.6761 1198.08 75.2102C1198.26 74.7443 1198.35 74.2197 1198.35 73.6364C1198.35 73.0606 1198.26 72.5436 1198.09 72.0852C1197.91 71.6269 1197.66 71.2652 1197.31 71C1196.97 70.7348 1196.55 70.6023 1196.03 70.6023C1195.54 70.6023 1195.12 70.7292 1194.78 70.983C1194.45 71.2367 1194.19 71.5909 1194.02 72.0455C1193.84 72.5 1193.76 73.0303 1193.76 73.6364ZM1208.51 71.4034L1206.97 71.6761C1206.91 71.4792 1206.8 71.2917 1206.66 71.1136C1206.53 70.9356 1206.34 70.7898 1206.11 70.6761C1205.87 70.5625 1205.58 70.5057 1205.23 70.5057C1204.74 70.5057 1204.34 70.6136 1204.02 70.8295C1203.7 71.0417 1203.54 71.3163 1203.54 71.6534C1203.54 71.9451 1203.65 72.1799 1203.86 72.358C1204.08 72.536 1204.43 72.6818 1204.91 72.7955L1206.29 73.1136C1207.1 73.2992 1207.7 73.5852 1208.09 73.9716C1208.48 74.358 1208.68 74.8598 1208.68 75.4773C1208.68 76 1208.53 76.4659 1208.23 76.875C1207.93 77.2803 1207.51 77.5985 1206.97 77.8295C1206.44 78.0606 1205.82 78.1761 1205.11 78.1761C1204.13 78.1761 1203.34 77.9678 1202.72 77.5511C1202.1 77.1307 1201.72 76.5341 1201.58 75.7614L1203.23 75.5114C1203.33 75.9394 1203.54 76.2633 1203.86 76.483C1204.17 76.6989 1204.59 76.8068 1205.1 76.8068C1205.66 76.8068 1206.1 76.6913 1206.44 76.4602C1206.77 76.2254 1206.94 75.9394 1206.94 75.6023C1206.94 75.3295 1206.83 75.1004 1206.63 74.9148C1206.43 74.7292 1206.12 74.589 1205.7 74.4943L1204.23 74.1705C1203.41 73.9848 1202.81 73.6894 1202.42 73.2841C1202.03 72.8788 1201.84 72.3655 1201.84 71.7443C1201.84 71.2292 1201.98 70.7784 1202.27 70.392C1202.56 70.0057 1202.96 69.7045 1203.46 69.4886C1203.97 69.2689 1204.55 69.1591 1205.21 69.1591C1206.15 69.1591 1206.89 69.3636 1207.44 69.7727C1207.98 70.178 1208.34 70.7216 1208.51 71.4034ZM1214.22 78.1761C1213.38 78.1761 1212.65 77.9848 1212.04 77.6023C1211.44 77.2159 1210.97 76.6837 1210.64 76.0057C1210.32 75.3277 1210.16 74.5511 1210.16 73.6761C1210.16 72.7898 1210.32 72.0076 1210.66 71.3295C1210.99 70.6477 1211.46 70.1155 1212.07 69.733C1212.67 69.3504 1213.39 69.1591 1214.21 69.1591C1214.87 69.1591 1215.46 69.2822 1215.98 69.5284C1216.5 69.7708 1216.92 70.1117 1217.24 70.5511C1217.56 70.9905 1217.75 71.5038 1217.81 72.0909H1216.16C1216.07 71.6818 1215.86 71.3295 1215.53 71.0341C1215.21 70.7386 1214.78 70.5909 1214.24 70.5909C1213.76 70.5909 1213.35 70.7159 1212.99 70.9659C1212.64 71.2121 1212.36 71.5644 1212.17 72.0227C1211.97 72.4773 1211.87 73.0152 1211.87 73.6364C1211.87 74.2727 1211.97 74.822 1212.16 75.2841C1212.36 75.7462 1212.63 76.1042 1212.98 76.358C1213.34 76.6117 1213.75 76.7386 1214.24 76.7386C1214.56 76.7386 1214.85 76.6799 1215.11 76.5625C1215.38 76.4413 1215.6 76.2689 1215.78 76.0455C1215.96 75.822 1216.08 75.553 1216.16 75.2386H1217.81C1217.75 75.803 1217.57 76.3068 1217.26 76.75C1216.95 77.1932 1216.54 77.5417 1216.03 77.7955C1215.51 78.0492 1214.91 78.1761 1214.22 78.1761ZM1219.63 78V69.2727H1221.27V70.6591H1221.36C1221.52 70.1894 1221.8 69.8201 1222.2 69.5511C1222.61 69.2784 1223.06 69.142 1223.58 69.142C1223.68 69.142 1223.81 69.1458 1223.95 69.1534C1224.1 69.161 1224.21 69.1705 1224.3 69.1818V70.8068C1224.23 70.7879 1224.11 70.767 1223.93 70.7443C1223.76 70.7178 1223.58 70.7045 1223.41 70.7045C1223.01 70.7045 1222.65 70.7898 1222.34 70.9602C1222.03 71.1269 1221.78 71.3598 1221.6 71.6591C1221.42 71.9545 1221.33 72.2917 1221.33 72.6705V78H1219.63ZM1225.77 78V69.2727H1227.47V78H1225.77ZM1226.62 67.9261C1226.33 67.9261 1226.08 67.8277 1225.86 67.6307C1225.66 67.4299 1225.55 67.1913 1225.55 66.9148C1225.55 66.6345 1225.66 66.3958 1225.86 66.1989C1226.08 65.9981 1226.33 65.8977 1226.62 65.8977C1226.92 65.8977 1227.17 65.9981 1227.38 66.1989C1227.59 66.3958 1227.7 66.6345 1227.7 66.9148C1227.7 67.1913 1227.59 67.4299 1227.38 67.6307C1227.17 67.8277 1226.92 67.9261 1226.62 67.9261ZM1229.89 78V66.3636H1231.59V70.6875H1231.69C1231.79 70.5057 1231.93 70.2955 1232.12 70.0568C1232.3 69.8182 1232.56 69.6098 1232.89 69.4318C1233.22 69.25 1233.65 69.1591 1234.19 69.1591C1234.9 69.1591 1235.53 69.3371 1236.08 69.6932C1236.63 70.0492 1237.07 70.5625 1237.38 71.233C1237.7 71.9034 1237.86 72.7102 1237.86 73.6534C1237.86 74.5966 1237.7 75.4053 1237.39 76.0795C1237.07 76.75 1236.64 77.267 1236.09 77.6307C1235.54 77.9905 1234.92 78.1705 1234.21 78.1705C1233.68 78.1705 1233.25 78.0814 1232.91 77.9034C1232.58 77.7254 1232.32 77.517 1232.13 77.2784C1231.94 77.0398 1231.79 76.8277 1231.69 76.642H1231.55V78H1229.89ZM1231.55 73.6364C1231.55 74.25 1231.64 74.7879 1231.82 75.25C1232 75.7121 1232.26 76.0739 1232.59 76.3352C1232.93 76.5928 1233.34 76.7216 1233.83 76.7216C1234.34 76.7216 1234.76 76.5871 1235.1 76.3182C1235.44 76.0455 1235.7 75.6761 1235.88 75.2102C1236.05 74.7443 1236.14 74.2197 1236.14 73.6364C1236.14 73.0606 1236.06 72.5436 1235.88 72.0852C1235.71 71.6269 1235.45 71.2652 1235.11 71C1234.77 70.7348 1234.34 70.6023 1233.83 70.6023C1233.34 70.6023 1232.92 70.7292 1232.58 70.983C1232.24 71.2367 1231.99 71.5909 1231.81 72.0455C1231.64 72.5 1231.55 73.0303 1231.55 73.6364ZM1243.53 78.1761C1242.67 78.1761 1241.93 77.9924 1241.31 77.625C1240.69 77.2538 1240.21 76.733 1239.88 76.0625C1239.54 75.3883 1239.38 74.5985 1239.38 73.6932C1239.38 72.7992 1239.54 72.0114 1239.88 71.3295C1240.21 70.6477 1240.68 70.1155 1241.28 69.733C1241.89 69.3504 1242.6 69.1591 1243.41 69.1591C1243.9 69.1591 1244.38 69.2405 1244.84 69.4034C1245.3 69.5663 1245.72 69.822 1246.09 70.1705C1246.45 70.5189 1246.74 70.9716 1246.95 71.5284C1247.17 72.0814 1247.27 72.7538 1247.27 73.5455V74.1477H1240.34V72.875H1245.61C1245.61 72.428 1245.52 72.0322 1245.34 71.6875C1245.15 71.339 1244.9 71.0644 1244.57 70.8636C1244.24 70.6629 1243.86 70.5625 1243.42 70.5625C1242.94 70.5625 1242.53 70.6799 1242.17 70.9148C1241.82 71.1458 1241.55 71.4489 1241.35 71.8239C1241.16 72.1951 1241.07 72.5985 1241.07 73.0341V74.0284C1241.07 74.6117 1241.17 75.108 1241.38 75.517C1241.58 75.9261 1241.87 76.2386 1242.24 76.4545C1242.62 76.6667 1243.05 76.7727 1243.55 76.7727C1243.87 76.7727 1244.16 76.7273 1244.43 76.6364C1244.69 76.5417 1244.92 76.4015 1245.11 76.2159C1245.31 76.0303 1245.45 75.8011 1245.56 75.5284L1247.16 75.8182C1247.04 76.2917 1246.8 76.7064 1246.47 77.0625C1246.14 77.4148 1245.73 77.6894 1245.23 77.8864C1244.73 78.0795 1244.16 78.1761 1243.53 78.1761Z" fill="white"/>
</svg>
